<svg id="Layer_1" data-name="Layer 1" xmlns="http://www.w3.org/2000/svg" viewBox="0 0 450 300"><defs><style>.cls-1{fill:#c60b1e;}.cls-2{fill:#ffc400;}.cls-3,.cls-33,.cls-34,.cls-35,.cls-59,.cls-69,.cls-9{fill:#ad1519;}.cls-10,.cls-11,.cls-12,.cls-13,.cls-14,.cls-15,.cls-16,.cls-17,.cls-18,.cls-19,.cls-20,.cls-21,.cls-22,.cls-23,.cls-24,.cls-25,.cls-26,.cls-27,.cls-28,.cls-29,.cls-3,.cls-30,.cls-31,.cls-32,.cls-33,.cls-34,.cls-35,.cls-36,.cls-37,.cls-38,.cls-39,.cls-4,.cls-40,.cls-41,.cls-42,.cls-43,.cls-44,.cls-45,.cls-46,.cls-47,.cls-48,.cls-49,.cls-50,.cls-51,.cls-52,.cls-53,.cls-54,.cls-55,.cls-56,.cls-57,.cls-58,.cls-59,.cls-6,.cls-60,.cls-63,.cls-65,.cls-66,.cls-67,.cls-68,.cls-69,.cls-7,.cls-70,.cls-71,.cls-72,.cls-8,.cls-9{stroke:#000;}.cls-3,.cls-30,.cls-34,.cls-71,.cls-8{stroke-linejoin:round;}.cls-10,.cls-11,.cls-3,.cls-36,.cls-39,.cls-4,.cls-61,.cls-67,.cls-7,.cls-8,.cls-9{stroke-width:0.16px;}.cls-30,.cls-31,.cls-4,.cls-5,.cls-6,.cls-60,.cls-61,.cls-63,.cls-71,.cls-72,.cls-8{fill:#c8b100;}.cls-6{stroke-width:0.18px;}.cls-12,.cls-13,.cls-14,.cls-15,.cls-16,.cls-17,.cls-18,.cls-19,.cls-20,.cls-21,.cls-22,.cls-23,.cls-24,.cls-25,.cls-26,.cls-27,.cls-32,.cls-36,.cls-37,.cls-41,.cls-42,.cls-43,.cls-44,.cls-45,.cls-46,.cls-47,.cls-48,.cls-49,.cls-50,.cls-51,.cls-52,.cls-53,.cls-54,.cls-7{fill:none;}.cls-10,.cls-55,.cls-58,.cls-62{fill:#058e6e;}.cls-11,.cls-38,.cls-40{fill:#fff;}.cls-12{stroke-width:0.01px;}.cls-13{stroke-width:0.01px;}.cls-14{stroke-width:0.02px;}.cls-15{stroke-width:0.02px;}.cls-16,.cls-68{stroke-width:0.03px;}.cls-17{stroke-width:0.04px;}.cls-18{stroke-width:0.04px;}.cls-19{stroke-width:0.05px;}.cls-20{stroke-width:0.05px;}.cls-21{stroke-width:0.06px;}.cls-22{stroke-width:0.07px;}.cls-23{stroke-width:0.07px;}.cls-24{stroke-width:0.08px;}.cls-25{stroke-width:0.08px;}.cls-26{stroke-width:0.09px;}.cls-27{stroke-width:0.11px;}.cls-28,.cls-39,.cls-70{fill:#005bbf;}.cls-28,.cls-29,.cls-30,.cls-31,.cls-32,.cls-33,.cls-34,.cls-40,.cls-55,.cls-65,.cls-66{stroke-width:0.23px;}.cls-29,.cls-56{fill:#ccc;}.cls-35{stroke-width:0.16px;}.cls-36{stroke-linecap:round;}.cls-37,.cls-38{stroke-width:0.13px;}.cls-41{stroke-width:0.14px;}.cls-42{stroke-width:0.17px;}.cls-43{stroke-width:0.2px;}.cls-44{stroke-width:0.22px;}.cls-45{stroke-width:0.25px;}.cls-46,.cls-63{stroke-width:0.28px;}.cls-47{stroke-width:0.31px;}.cls-48{stroke-width:0.34px;}.cls-49{stroke-width:0.36px;}.cls-50{stroke-width:0.38px;}.cls-51{stroke-width:0.41px;}.cls-52{stroke-width:0.44px;}.cls-53{stroke-width:0.46px;}.cls-54{stroke-width:0.55px;}.cls-56,.cls-57,.cls-58,.cls-59,.cls-60{stroke-width:0.31px;}.cls-57{fill:#ffd691;}.cls-61{stroke:#c8b100;}.cls-64{fill:#0039f0;}.cls-65{fill:#db4446;}.cls-66{fill:#ed72aa;}.cls-69,.cls-70{stroke-width:0.37px;}.cls-71,.cls-72{stroke-width:0.2px;}</style></defs><rect class="cls-1" width="450" height="300"/><rect class="cls-2" y="75" width="450" height="150"/><g id="coa"><g id="supporters"><g id="crown_left" data-name="crown left"><path class="cls-3" d="M100.79,133.34a1.25,1.25,0,0,1-.47-.09,7.58,7.58,0,0,1-.68-.58l-.41-.29-.37-.51a1.74,1.74,0,0,1-.24-1.26,1.64,1.64,0,0,1,.85-.9,9.53,9.53,0,0,1,1-.35,5.56,5.56,0,0,1,.68-.25l.78-.19a3.12,3.12,0,0,1,.34-.17,4,4,0,0,1,.54-.09,3.59,3.59,0,0,1,.68-.16c.31,0,.82.06,1,.06l1,0c.23,0,1.08-.06,1.32-.06a5.13,5.13,0,0,1,.68,0,4.31,4.31,0,0,1,.88.25c.14.07.95.36,1.25.45a14,14,0,0,1,1.39.39,1.93,1.93,0,0,1,.72.66,2.28,2.28,0,0,1,.27.63,1.23,1.23,0,0,1,0,.66,4,4,0,0,1-.31.49l-.37.61-.47.39s-.35.32-.62.28a40.74,40.74,0,0,0-4.78-.51,33.44,33.44,0,0,0-4.58.51Z"/><ellipse class="cls-4" cx="105.4" cy="129.41" rx="0.83" ry="1.5"/><ellipse class="cls-4" cx="105.41" cy="129.41" rx="0.38" ry="1.38"/><ellipse class="cls-5" cx="105.41" cy="127.82" rx="0.56" ry="0.52"/><path class="cls-6" d="M106.18,127.64V128h-1.52v-.35h.56v-.79h-.37v-.34h.37v-.34h.36v.34H106v.34h-.37v.79h.6"/><path class="cls-7" d="M105.56,127.32a.52.52,0,0,1,.39.64.57.57,0,0,1-.69.37.52.52,0,0,1-.38-.65.55.55,0,0,1,.38-.36"/><path class="cls-4" d="M105.41,133.25h-2.89l-.06-.71-.14-.74-.14-.92c-.8-1-1.53-1.74-1.78-1.59a.69.69,0,0,1,.29-.42c.7-.42,2.16.59,3.26,2.24.1.15.19.3.28.45h2.38c.08-.15.18-.3.27-.45,1.1-1.65,2.56-2.66,3.26-2.24a.64.64,0,0,1,.28.42c-.24-.14-1,.54-1.77,1.59l-.14.92-.14.74-.06.71Z"/><path class="cls-7" d="M100.53,129.26c.55-.31,1.81.69,2.84,2.25m6.93-2.25c-.55-.31-1.81.69-2.84,2.25"/><g id="crown_pt1" data-name="crown pt1"><path class="cls-4" d="M101.15,134.55a2.86,2.86,0,0,0-.35-.65,19.26,19.26,0,0,1,9.22,0s-.14.23-.32.55a3.39,3.39,0,0,0-.22.48,14.71,14.71,0,0,0-4.08-.49,14.05,14.05,0,0,0-4.12.52,3.7,3.7,0,0,0-.14-.41h0"/><path class="cls-4" d="M105.4,136a19.15,19.15,0,0,0,3.66-.38c.4-.12.63-.29.59-.5a.36.36,0,0,0-.22-.23,17.16,17.16,0,0,0-8.06,0,.36.36,0,0,0-.22.23c0,.21.19.38.59.5A19.15,19.15,0,0,0,105.4,136Z"/><path class="cls-4" d="M110.09,133.25l-.36-.32a1.28,1.28,0,0,1-.76.14c-.42-.06-.56-.58-.56-.58a1.57,1.57,0,0,1-.87.37,1,1,0,0,1-.64-.37,1.44,1.44,0,0,1-.8.28,1.36,1.36,0,0,1-.72-.5s-.38.48-.75.52a1,1,0,0,1-.68-.33.86.86,0,0,1-.64.43,1.11,1.11,0,0,1-.88-.37,1.45,1.45,0,0,1-.6.55,1,1,0,0,1-.74-.16l-.12.26a.25.25,0,0,1-.19.11l.11.29a16.69,16.69,0,0,1,4.52-.55,17,17,0,0,1,4.56.55l.12-.32Z"/><path class="cls-4" d="M105.41,131.69l.17,0a.61.61,0,0,0,0,.23.65.65,0,0,0,.67.63.66.66,0,0,0,.63-.44s.07-.22.09-.22,0,.24,0,.24a.67.67,0,0,0,1.33-.1.17.17,0,0,0,0-.07l.21-.21.12.26a.67.67,0,0,0-.06.28.64.64,0,0,0,1.16.33l.14-.17v.22c0,.2.08.39.29.42a.87.87,0,0,0,.55-.23,3.14,3.14,0,0,0,.48-.45l0,.26a2.5,2.5,0,0,1-.58.66,1,1,0,0,1-.57.15.57.57,0,0,1-.41-.37,1,1,0,0,1-1.33-.38.94.94,0,0,1-.69.3,1,1,0,0,1-.76-.35,1,1,0,0,1-.65.26,1,1,0,0,1-.8-.42,1,1,0,0,1-.81.42,1,1,0,0,1-.65-.26,1,1,0,0,1-.75.35,1,1,0,0,1-.7-.3.93.93,0,0,1-.85.51,1,1,0,0,1-.48-.13.55.55,0,0,1-.41.37.93.93,0,0,1-.56-.15,2.61,2.61,0,0,1-.61-.66l0-.26a3,3,0,0,0,.49.45.84.84,0,0,0,.54.23.38.38,0,0,0,.3-.42v-.22l.13.17a.64.64,0,0,0,1.16-.33.55.55,0,0,0-.06-.28l.12-.26.21.21a.17.17,0,0,0,0,.07.67.67,0,0,0,1.33.1s0-.24,0-.24.08.23.09.22a.67.67,0,0,0,.64.44.65.65,0,0,0,.66-.63.61.61,0,0,0,0-.23l.18,0Z"/><path class="cls-8" d="M105.4,133.34a17.23,17.23,0,0,0-4.6.56.17.17,0,0,1-.2-.1.16.16,0,0,1,.11-.19,19,19,0,0,1,9.39,0,.16.16,0,0,1,.11.19.17.17,0,0,1-.2.1A17.25,17.25,0,0,0,105.4,133.34Z"/><path class="cls-4" d="M99.26,132.6s-.23-.29-.39-.44a1.41,1.41,0,0,0-.41-.2.43.43,0,0,1,.35-.16.33.33,0,0,1,.27.12l0-.12a.31.31,0,0,1,.21.19,1,1,0,0,1,0,.43.56.56,0,0,1-.08.18Z"/><path class="cls-4" d="M100.39,132.13l-.06.4-.84.09-.13-.07,0-.14.64-.52.37.24"/><path class="cls-4" d="M99.27,132.45a.25.25,0,0,1,.32,0c.11.09.14.22.07.3a.24.24,0,0,1-.32,0C99.23,132.66,99.2,132.52,99.27,132.45Z"/><path class="cls-4" d="M100.81,132.53a.2.2,0,0,1,.08-.25.21.21,0,0,1,.22.16c0,.11,0,.23-.08.25A.21.21,0,0,1,100.81,132.53Z"/><path class="cls-4" d="M101.2,132l.31.29.73-.39.05-.13-.1-.1-.84-.07-.15.4"/><path class="cls-4" d="M102.05,130.66l-.4.38.51.68.14.06.1-.11.18-.82-.53-.19"/><path class="cls-4" d="M103.42,131.58l-.16.38-.84-.08-.11-.1.06-.13.73-.38.32.31"/><ellipse class="cls-4" cx="102.31" cy="131.79" rx="0.29" ry="0.28"/><path class="cls-4" d="M103.72,132a.18.18,0,0,1,.13-.23c.08,0,.17.07.18.19s0,.23-.13.23S103.73,132.08,103.72,132Z"/><path class="cls-4" d="M104.27,131.54l.24.35.8-.26.09-.1-.09-.12-.8-.24-.24.37"/><path class="cls-4" d="M105.4,130.29l-.52.31.38.83.14.08.13-.08.38-.83-.51-.31"/><path class="cls-4" d="M106.53,131.54l-.23.35-.81-.26-.08-.1.08-.12.81-.24.23.37"/><ellipse class="cls-4" cx="105.4" cy="131.53" rx="0.29" ry="0.28"/><path class="cls-4" d="M107.1,132c0-.12,0-.22-.13-.23s-.17.07-.18.19,0,.23.12.23S107.08,132.08,107.1,132Z"/><path class="cls-4" d="M107.39,131.58l.16.38.84-.08.11-.1-.06-.13-.73-.38-.32.31"/><path class="cls-4" d="M108.76,130.66l.4.38-.51.68-.14.06-.1-.11-.18-.82.53-.19"/><path class="cls-4" d="M109.61,132l-.31.29-.73-.39-.06-.13.11-.1.84-.07.15.4"/><ellipse class="cls-4" cx="108.51" cy="131.79" rx="0.29" ry="0.28"/><path class="cls-4" d="M110,132.53a.2.2,0,0,0-.07-.25c-.09,0-.18.05-.23.16s0,.23.09.25S110,132.64,110,132.53Z"/><path class="cls-4" d="M111.44,132.6s.23-.29.39-.44a1.41,1.41,0,0,1,.41-.2.43.43,0,0,0-.35-.16.33.33,0,0,0-.27.12l0-.12a.33.33,0,0,0-.21.19.92.92,0,0,0,0,.43.39.39,0,0,0,.08.18Z"/><path class="cls-4" d="M110.3,132.13l.07.4.84.09.13-.07,0-.14-.63-.52-.38.24"/><path class="cls-4" d="M111.44,132.45c-.06-.07-.21,0-.31,0s-.15.22-.08.3a.25.25,0,0,0,.33,0C111.49,132.66,111.52,132.52,111.44,132.45Z"/></g><g id="crown_pt2" data-name="crown pt2"><path class="cls-9" d="M100.83,134.58l.19-.3.39.08-.23.33-.35-.11"/><path class="cls-10" d="M102.51,134.29l-.41.06a.2.2,0,0,1-.23-.15A.18.18,0,0,1,102,134l.42-.06.43-.07a.2.2,0,0,1,.22.15.19.19,0,0,1-.16.21l-.43.07"/><ellipse class="cls-11" cx="103.91" cy="133.98" rx="0.26" ry="0.25"/><path class="cls-9" d="M105.42,134.09h-.58a.2.2,0,0,1-.19-.19.18.18,0,0,1,.19-.18H106a.18.18,0,0,1,.2.18.2.2,0,0,1-.2.19h-.59"/><ellipse class="cls-11" cx="106.9" cy="133.98" rx="0.26" ry="0.25"/><path class="cls-10" d="M108.3,134.29l.41.06a.2.2,0,0,0,.23-.15.18.18,0,0,0-.16-.21l-.42-.06-.43-.07a.19.19,0,0,0-.22.15.18.18,0,0,0,.16.21l.43.07"/><path class="cls-9" d="M109.94,134.6l-.15-.32-.4,0,.19.35.36-.07"/><path class="cls-3" d="M105.4,135.7a16.21,16.21,0,0,1-3.78-.39,17.27,17.27,0,0,1,7.57,0A16.3,16.3,0,0,1,105.4,135.7Z"/><path class="cls-12" d="M106.08,135.65V135m-.35.72v-.74m-.26.75v-.75"/><path class="cls-13" d="M105.26,135.69v-.76"/><path class="cls-14" d="M105.05,135.69v-.76"/><path class="cls-15" d="M104.86,135.69v-.76"/><path class="cls-15" d="M104.66,135.69v-.76"/><path class="cls-16" d="M104.5,135.69v-.76"/><path class="cls-17" d="M104.17,135.65V135m.16.7v-.73"/><path class="cls-18" d="M103.86,135.62V135m.16.66V135"/><path class="cls-19" d="M103.45,135.58V135m.14.57V135m.14.61V135"/><path class="cls-20" d="M103.31,135.58V135"/><path class="cls-21" d="M103.18,135.55V135"/><path class="cls-22" d="M103,135.53v-.46"/><path class="cls-23" d="M102.74,135.49v-.37m.15.4v-.42"/><path class="cls-23" d="M102.59,135.46v-.33"/><path class="cls-24" d="M102.46,135.44v-.28"/><path class="cls-25" d="M102.31,135.4v-.21"/><path class="cls-26" d="M102.16,135.38v-.16"/><path class="cls-27" d="M102,135.35v-.08"/></g></g><g id="pillar_left" data-name="pillar left"><path class="cls-28" d="M114.77,198.41a5.15,5.15,0,0,1-2.36-.52,5.17,5.17,0,0,0-2.32-.5,5.4,5.4,0,0,0-2.34.5,5.16,5.16,0,0,1-2.35.52,5.11,5.11,0,0,1-2.36-.54,5.19,5.19,0,0,0-2.28-.48,5.1,5.1,0,0,0-2.31.49,5.22,5.22,0,0,1-2.37.53v1.44a5.36,5.36,0,0,0,2.37-.52,5,5,0,0,1,2.31-.5,5.37,5.37,0,0,1,2.28.48,5.11,5.11,0,0,0,2.36.54,5.17,5.17,0,0,0,2.35-.51,5.63,5.63,0,0,1,4.66,0,5,5,0,0,0,2.35.52v-1.44Z"/><path class="cls-29" d="M114.77,199.85a5,5,0,0,1-2.36-.52,5.63,5.63,0,0,0-4.66,0,5.17,5.17,0,0,1-2.35.51,5.11,5.11,0,0,1-2.36-.54,5.34,5.34,0,0,0-2.28-.48,5,5,0,0,0-2.31.5,5.36,5.36,0,0,1-2.37.52v1.45a5.22,5.22,0,0,0,2.37-.53,5.1,5.1,0,0,1,2.31-.49,5.37,5.37,0,0,1,2.28.48,5.11,5.11,0,0,0,2.36.54,5.16,5.16,0,0,0,2.35-.52,5.26,5.26,0,0,1,2.34-.5,5.17,5.17,0,0,1,2.32.5,5.1,5.1,0,0,0,2.35.52v-1.45"/><path class="cls-28" d="M114.77,201.3a5.15,5.15,0,0,1-2.36-.52,5.17,5.17,0,0,0-2.32-.5,5.26,5.26,0,0,0-2.34.5,5.16,5.16,0,0,1-2.35.52,5.11,5.11,0,0,1-2.36-.54,5.34,5.34,0,0,0-2.28-.48,5.1,5.1,0,0,0-2.31.49,5.22,5.22,0,0,1-2.37.53v1.44a5.09,5.09,0,0,0,2.37-.53,5.73,5.73,0,0,1,4.59,0,5.11,5.11,0,0,0,2.36.53,5.17,5.17,0,0,0,2.35-.51,5.73,5.73,0,0,1,4.66,0,5,5,0,0,0,2.35.52V201.3"/><path class="cls-29" d="M114.76,204.19a5.1,5.1,0,0,1-2.35-.52,5.73,5.73,0,0,0-4.66,0,5.3,5.3,0,0,1-2.35.51,5.11,5.11,0,0,1-2.36-.54,5.2,5.2,0,0,0-2.28-.47,5.1,5.1,0,0,0-2.31.48,5.22,5.22,0,0,1-2.37.53v-1.44a5.09,5.09,0,0,0,2.37-.54,5.73,5.73,0,0,1,4.59,0,5.11,5.11,0,0,0,2.36.53,5.17,5.17,0,0,0,2.35-.51,5.73,5.73,0,0,1,4.66,0,5,5,0,0,0,2.36.52v1.45"/><path class="cls-28" d="M114.76,205.64a5.1,5.1,0,0,1-2.35-.52,5.17,5.17,0,0,0-2.32-.5,5.26,5.26,0,0,0-2.34.5,5.3,5.3,0,0,1-2.35.52,5.11,5.11,0,0,1-2.36-.54,5.19,5.19,0,0,0-2.28-.48,5.1,5.1,0,0,0-2.31.49,5.22,5.22,0,0,1-2.37.53V204.2a5.22,5.22,0,0,0,2.37-.54,5.1,5.1,0,0,1,2.31-.48,5.38,5.38,0,0,1,2.28.47,5.11,5.11,0,0,0,2.36.54,5.3,5.3,0,0,0,2.35-.51,5.73,5.73,0,0,1,4.66,0,5.15,5.15,0,0,0,2.36.52v1.45Z"/><path class="cls-30" d="M100.15,192.47a1.53,1.53,0,0,1,.08.37,1.64,1.64,0,0,1-1.69,1.58h13.77a1.64,1.64,0,0,1-1.69-1.58,1.51,1.51,0,0,1,.06-.37.8.8,0,0,1-.27,0h-10A1,1,0,0,1,100.15,192.47Z"/><path class="cls-31" d="M100.4,191.56h10a.49.49,0,1,1,0,.94h-10a.49.49,0,1,1,0-.94Z"/><path class="cls-31" d="M98.56,197.92h13.72v-3.5H98.56Z"/><path class="cls-29" d="M100.53,191h9.75V143.21h-9.75Z"/><path class="cls-32" d="M107.48,143.28V191m1.1-47.68V191"/><path class="cls-31" d="M98.75,139.42h13.37v-3.5H98.75v3.5Z"/><path class="cls-30" d="M100.15,141.76a.53.53,0,0,1,.25,0h10a.87.87,0,0,1,.28,0,.83.83,0,0,1-.6-.79.87.87,0,0,1,.62-.8.93.93,0,0,1-.29.05h-10a.82.82,0,0,1-.28,0l0,0a.77.77,0,0,1,.56.77.83.83,0,0,1-.58.79Z"/><path class="cls-31" d="M100.4,141.71h10a.49.49,0,1,1,0,.95h-10a.49.49,0,1,1,0-.95Z"/><path class="cls-31" d="M100.4,139.42h10c.34,0,.62.18.62.4s-.28.4-.62.4h-10c-.34,0-.61-.18-.61-.4S100.06,139.42,100.4,139.42Z"/></g><g id="ribbon_left" data-name="ribbon left"><path class="cls-33" d="M97.49,179.17c-1.36.78-2.28,1.59-2.13,2s.5.64,1.12,1.05c1,.68,1.56,1.88,1.1,2.44a3.45,3.45,0,0,0-.09-5.48Z"/><path class="cls-34" d="M120.24,161.08a31.28,31.28,0,0,0-9.89-1.67,32,32,0,0,0-4.68.42c-5.83,1-10.28,3.31-9.92,5.21a.8.8,0,0,0,0,.15s-2.19-4.92-2.22-5.11c-.39-2.11,4.53-4.69,11-5.77a33,33,0,0,1,5.73-.46,31.26,31.26,0,0,1,9.92,1.34l0,5.89"/><path class="cls-33" d="M100.51,167.08c-2.7-.19-4.55-.92-4.76-2-.17-.9.75-1.91,2.38-2.81a21.74,21.74,0,0,0,2.4.18l0,4.67"/><path class="cls-33" d="M110.3,163.43a8.18,8.18,0,0,1,3.59,1.19l.06.1c.3.62-1.19,1.94-3.67,3.41l0-4.7"/><path class="cls-34" d="M94.45,176.3c-.26-.77,2.38-2.32,6.11-3.69,1.7-.6,3.11-1.24,4.85-2,5.18-2.29,9-4.92,8.54-5.87l-.06-.1c.28.23.71,4.94.71,4.94.47.88-3,3.47-7.8,5.75-1.52.73-4.75,1.92-6.26,2.45-2.73.95-5.43,2.73-5.18,3.39l-.91-4.86Z"/></g><g id="crown_right" data-name="crown right"><path class="cls-35" d="M194.91,132.25a2.12,2.12,0,0,1-.77.54c-.32.06-.72-.3-.72-.3a1.47,1.47,0,0,1-.65.39c-.36.08-.85-.4-.85-.4a2,2,0,0,1-.64.59.89.89,0,0,1-.68-.14,1.18,1.18,0,0,1-.39.37.44.44,0,0,1-.29,0l-.36-.23-.4-.43-.38-.15s-.16-.54-.18-.64,0-.34,0-.34c-.08-.39.52-.84,1.38-1a2.49,2.49,0,0,1,1.24,0,3.26,3.26,0,0,1,1.92-.49,3.39,3.39,0,0,1,1.82.42,3.37,3.37,0,0,1,1.82-.42,3.25,3.25,0,0,1,1.91.49,2.49,2.49,0,0,1,1.24,0c.86.19,1.46.64,1.38,1,0,0,0,.24,0,.34s-.2.64-.2.64l-.37.15-.41.43-.34.23a.44.44,0,0,1-.29,0,1.06,1.06,0,0,1-.4-.37.89.89,0,0,1-.68.14,2,2,0,0,1-.64-.59s-.49.48-.85.4a1.48,1.48,0,0,1-.64-.39s-.41.36-.73.3a2.15,2.15,0,0,1-.76-.54Z"/><ellipse class="cls-4" cx="194.89" cy="129.72" rx="0.83" ry="1.18"/><ellipse class="cls-4" cx="194.91" cy="129.72" rx="0.38" ry="1.09"/><ellipse class="cls-5" cx="194.9" cy="128.37" rx="0.56" ry="0.53"/><path class="cls-6" d="M195.68,128.18v.35h-1.52v-.35h.56v-.78h-.37v-.34h.37v-.35h.37v.35h.37v.34h-.37v.78h.59"/><path class="cls-7" d="M195.07,127.87a.53.53,0,0,1,.37.66.57.57,0,0,1-.7.35.52.52,0,0,1-.37-.66.53.53,0,0,1,.39-.35"/><path class="cls-36" d="M188.65,132a1.69,1.69,0,0,1,1.56-2.37,1.62,1.62,0,0,1,.82.22"/><path class="cls-7" d="M191.69,130.76a1.08,1.08,0,0,1-.18-.51A1.45,1.45,0,0,1,193.1,129a1.88,1.88,0,0,1,1,.27"/><path class="cls-7" d="M198.1,130.78a1.12,1.12,0,0,0,.15-.53,1.44,1.44,0,0,0-1.58-1.24,1.88,1.88,0,0,0-1,.27"/><path class="cls-36" d="M201.13,132a1.91,1.91,0,0,0,.12-.64,1.69,1.69,0,0,0-2.52-1.51"/><ellipse class="cls-37" cx="188.14" cy="131.21" rx="0.27" ry="0.26"/><ellipse class="cls-37" cx="188.24" cy="130.26" rx="0.27" ry="0.26"/><ellipse class="cls-37" cx="188.86" cy="129.54" rx="0.27" ry="0.26"/><ellipse class="cls-37" cx="189.67" cy="129.15" rx="0.27" ry="0.26"/><ellipse class="cls-37" cx="190.53" cy="129.19" rx="0.27" ry="0.26"/><ellipse class="cls-38" cx="191.06" cy="130.25" rx="0.27" ry="0.26"/><ellipse class="cls-37" cx="191.21" cy="129.35" rx="0.27" ry="0.26"/><ellipse class="cls-37" cx="191.89" cy="128.78" rx="0.27" ry="0.26"/><ellipse class="cls-37" cx="192.74" cy="128.51" rx="0.27" ry="0.26"/><ellipse class="cls-37" cx="193.6" cy="128.54" rx="0.27" ry="0.26"/><ellipse class="cls-37" cx="196.16" cy="128.54" rx="0.27" ry="0.26"/><ellipse class="cls-37" cx="197.03" cy="128.51" rx="0.27" ry="0.26"/><ellipse class="cls-37" cx="197.88" cy="128.78" rx="0.27" ry="0.26"/><ellipse class="cls-37" cx="198.56" cy="129.35" rx="0.27" ry="0.26"/><ellipse class="cls-38" cx="198.71" cy="130.25" rx="0.27" ry="0.26"/><ellipse class="cls-37" cx="199.24" cy="129.19" rx="0.27" ry="0.26"/><ellipse class="cls-37" cx="200.11" cy="129.15" rx="0.27" ry="0.26"/><ellipse class="cls-37" cx="200.92" cy="129.54" rx="0.27" ry="0.26"/><ellipse class="cls-37" cx="201.53" cy="130.26" rx="0.27" ry="0.26"/><ellipse class="cls-37" cx="201.63" cy="131.21" rx="0.27" ry="0.26"/><g id="crown_pt1-2" data-name="crown pt1"><path class="cls-4" d="M190.65,134.55a2.86,2.86,0,0,0-.35-.65,19.26,19.26,0,0,1,9.22,0l-.31.55a2.83,2.83,0,0,0-.23.48,14.65,14.65,0,0,0-4.08-.49,14.05,14.05,0,0,0-4.12.52,3.7,3.7,0,0,0-.14-.41h0"/><path class="cls-4" d="M194.9,136a19.15,19.15,0,0,0,3.66-.38c.4-.12.63-.29.59-.5a.36.36,0,0,0-.22-.23,17.16,17.16,0,0,0-8.06,0,.36.36,0,0,0-.22.23c0,.21.19.38.59.5A19.25,19.25,0,0,0,194.9,136Z"/><path class="cls-4" d="M199.59,133.25l-.35-.32a1.33,1.33,0,0,1-.77.14c-.42-.06-.56-.58-.56-.58a1.52,1.52,0,0,1-.86.37,1,1,0,0,1-.65-.37,1.43,1.43,0,0,1-.79.28,1.36,1.36,0,0,1-.73-.5s-.38.48-.75.52a1,1,0,0,1-.68-.33.86.86,0,0,1-.64.43,1.13,1.13,0,0,1-.88-.37,1.45,1.45,0,0,1-.6.55,1,1,0,0,1-.74-.16l-.12.26a.25.25,0,0,1-.19.11l.11.29a16.69,16.69,0,0,1,4.52-.55,17.14,17.14,0,0,1,4.57.55l.12-.32Z"/><path class="cls-4" d="M194.92,131.69l.16,0a.61.61,0,0,0,0,.23.65.65,0,0,0,.67.63.68.68,0,0,0,.64-.44s.06-.22.09-.22,0,.24,0,.24a.67.67,0,0,0,1.32-.1V132l.21-.21.11.26a.67.67,0,0,0-.06.28.62.62,0,0,0,.64.6.61.61,0,0,0,.52-.27l.14-.17v.22a.38.38,0,0,0,.3.42.85.85,0,0,0,.54-.23,3.14,3.14,0,0,0,.48-.45l0,.26a2.5,2.5,0,0,1-.58.66,1,1,0,0,1-.57.15.55.55,0,0,1-.4-.37,1,1,0,0,1-.48.13,1,1,0,0,0-1.55-.21,1,1,0,0,1-.76-.35,1,1,0,0,1-.65.26,1,1,0,0,0-1.6,0,1,1,0,0,1-.66-.26,1,1,0,0,1-.75.35,1,1,0,0,1-.7-.3.92.92,0,0,1-.85.51,1,1,0,0,1-.48-.13.55.55,0,0,1-.4.37,1,1,0,0,1-.57-.15,2.61,2.61,0,0,1-.61-.66l0-.26a3.62,3.62,0,0,0,.49.45.84.84,0,0,0,.54.23.38.38,0,0,0,.3-.42v-.22l.13.17a.62.62,0,0,0,.53.27.62.62,0,0,0,.63-.6.55.55,0,0,0-.06-.28l.12-.26.21.21a.17.17,0,0,0,0,.07.66.66,0,0,0,.67.64.64.64,0,0,0,.66-.54s0-.24,0-.24.08.23.09.22a.67.67,0,0,0,.64.44.65.65,0,0,0,.67-.63.61.61,0,0,0,0-.23l.17,0Z"/><path class="cls-8" d="M194.9,133.34a17.23,17.23,0,0,0-4.6.56.17.17,0,0,1-.2-.1.16.16,0,0,1,.11-.19,19,19,0,0,1,9.39,0,.16.16,0,0,1,.11.19.17.17,0,0,1-.2.1A17.25,17.25,0,0,0,194.9,133.34Z"/><path class="cls-4" d="M188.76,132.6s-.23-.29-.39-.44a1.41,1.41,0,0,0-.41-.2.43.43,0,0,1,.35-.16.33.33,0,0,1,.27.12l0-.12a.31.31,0,0,1,.21.19.84.84,0,0,1,0,.43.56.56,0,0,1-.08.18Z"/><path class="cls-4" d="M189.89,132.13l-.06.4-.84.09-.13-.07,0-.14.63-.52.37.24"/><path class="cls-4" d="M188.77,132.45a.25.25,0,0,1,.32,0c.11.09.14.22.07.3a.24.24,0,0,1-.32,0C188.74,132.66,188.7,132.52,188.77,132.45Z"/><path class="cls-4" d="M190.31,132.53a.2.2,0,0,1,.08-.25.21.21,0,0,1,.22.16c0,.11,0,.23-.08.25S190.36,132.64,190.31,132.53Z"/><path class="cls-4" d="M190.7,132l.31.29.73-.39.06-.13-.11-.1-.84-.07-.15.4"/><path class="cls-4" d="M191.55,130.66l-.4.38.51.68.14.06.1-.11.18-.82-.53-.19"/><path class="cls-4" d="M192.92,131.58l-.16.38-.84-.08-.11-.1.06-.13.74-.38.31.31"/><ellipse class="cls-4" cx="191.81" cy="131.79" rx="0.29" ry="0.28"/><path class="cls-4" d="M193.22,132c0-.12.05-.22.13-.23s.17.07.18.19,0,.23-.13.23S193.24,132.08,193.22,132Z"/><path class="cls-4" d="M193.77,131.54l.24.35.8-.26.09-.1-.09-.12-.8-.24-.24.37"/><path class="cls-4" d="M194.9,130.29l-.52.31.39.83.13.08.13-.08.38-.83-.51-.31"/><path class="cls-4" d="M196,131.54l-.23.35-.81-.26-.08-.1.08-.12.81-.24.23.37"/><ellipse class="cls-4" cx="194.9" cy="131.53" rx="0.29" ry="0.28"/><path class="cls-4" d="M196.6,132c0-.12,0-.22-.13-.23s-.17.07-.18.19,0,.23.13.23S196.58,132.08,196.6,132Z"/><path class="cls-4" d="M196.9,131.58l.15.38.84-.08.11-.1-.06-.13-.73-.38-.31.31"/><path class="cls-4" d="M198.26,130.66l.41.38-.52.68-.14.06-.1-.11-.18-.82.53-.19"/><path class="cls-4" d="M199.11,132l-.31.29-.73-.39-.06-.13.12-.1.84-.07.14.4"/><ellipse class="cls-4" cx="198.01" cy="131.79" rx="0.29" ry="0.28"/><path class="cls-4" d="M199.51,132.53a.2.2,0,0,0-.08-.25.21.21,0,0,0-.22.16c0,.11,0,.23.08.25S199.46,132.64,199.51,132.53Z"/><path class="cls-4" d="M200.94,132.6s.23-.29.4-.44a1.28,1.28,0,0,1,.4-.2.43.43,0,0,0-.35-.16.33.33,0,0,0-.27.12l0-.12a.33.33,0,0,0-.22.19.92.92,0,0,0,0,.43.56.56,0,0,0,.08.18Z"/><path class="cls-4" d="M199.81,132.13l.06.4.84.09.13-.07,0-.14-.63-.52-.37.24"/><path class="cls-4" d="M201,132.45a.25.25,0,0,0-.32,0c-.11.09-.15.22-.07.3a.24.24,0,0,0,.32,0C201,132.66,201,132.52,201,132.45Z"/></g><g id="crown_pt2-2" data-name="crown pt2"><path class="cls-9" d="M190.33,134.58l.19-.3.39.08-.23.33-.35-.11"/><path class="cls-10" d="M192,134.29l-.41.06a.2.2,0,0,1-.23-.15.18.18,0,0,1,.16-.21l.42-.06.43-.07a.19.19,0,0,1,.22.15.19.19,0,0,1-.16.21l-.43.07"/><ellipse class="cls-11" cx="193.42" cy="133.98" rx="0.26" ry="0.25"/><path class="cls-9" d="M194.92,134.09h-.57a.2.2,0,0,1-.2-.19.18.18,0,0,1,.19-.18h1.18a.18.18,0,0,1,.19.18.2.2,0,0,1-.19.19h-.6"/><ellipse class="cls-11" cx="196.4" cy="133.98" rx="0.26" ry="0.25"/><path class="cls-10" d="M197.8,134.29l.42.06a.19.19,0,0,0,.22-.15.17.17,0,0,0-.16-.21l-.42-.06-.42-.07a.2.2,0,0,0-.23.15.19.19,0,0,0,.17.21l.42.07"/><path class="cls-9" d="M199.45,134.6l-.15-.32-.41,0,.2.35.36-.07"/><path class="cls-3" d="M194.9,135.7a16.21,16.21,0,0,1-3.78-.39,15.54,15.54,0,0,1,3.78-.42,15.78,15.78,0,0,1,3.8.42A16.45,16.45,0,0,1,194.9,135.7Z"/><path class="cls-12" d="M195.58,135.65V135m-.35.72v-.74m-.26.75v-.75"/><path class="cls-13" d="M194.77,135.69v-.76"/><path class="cls-14" d="M194.56,135.69v-.76"/><path class="cls-15" d="M194.36,135.69v-.76"/><path class="cls-15" d="M194.17,135.69v-.76"/><path class="cls-16" d="M194,135.69v-.76"/><path class="cls-17" d="M193.67,135.65V135m.16.7v-.73"/><path class="cls-18" d="M193.36,135.62V135m.16.66V135"/><path class="cls-19" d="M193,135.58V135m.14.57V135m.14.61V135"/><path class="cls-20" d="M192.82,135.58V135"/><path class="cls-21" d="M192.68,135.55V135"/><path class="cls-22" d="M192.54,135.53v-.46"/><path class="cls-23" d="M192.25,135.49v-.37m.16.4v-.42"/><path class="cls-23" d="M192.1,135.46v-.33"/><path class="cls-24" d="M192,135.44v-.28"/><path class="cls-25" d="M191.81,135.4v-.21"/><path class="cls-26" d="M191.66,135.38v-.16"/><path class="cls-27" d="M191.5,135.35v-.08"/></g></g><g id="pillar_right" data-name="pillar right"><g id="pillar_left-2" data-name="pillar left"><path class="cls-28" d="M204.27,198.41a5.18,5.18,0,0,1-2.36-.52,5.12,5.12,0,0,0-2.31-.5,5.45,5.45,0,0,0-2.35.5,5.5,5.5,0,0,1-4.71,0,5.18,5.18,0,0,0-2.27-.48,5.11,5.11,0,0,0-2.32.49,5.22,5.22,0,0,1-2.37.53v1.44a5.36,5.36,0,0,0,2.37-.52,5,5,0,0,1,2.32-.5,5.33,5.33,0,0,1,2.27.48,5.54,5.54,0,0,0,4.71,0,5.63,5.63,0,0,1,4.66,0,5,5,0,0,0,2.35.52v-1.44Z"/><path class="cls-29" d="M204.27,199.85a5.05,5.05,0,0,1-2.36-.52,5.63,5.63,0,0,0-4.66,0,5.54,5.54,0,0,1-4.71,0,5.33,5.33,0,0,0-2.27-.48,5,5,0,0,0-2.32.5,5.36,5.36,0,0,1-2.37.52v1.45a5.22,5.22,0,0,0,2.37-.53,5.11,5.11,0,0,1,2.32-.49,5.33,5.33,0,0,1,2.27.48,5.5,5.5,0,0,0,4.71,0,5.3,5.3,0,0,1,2.35-.5,5.12,5.12,0,0,1,2.31.5,5.1,5.1,0,0,0,2.35.52v-1.45"/><path class="cls-28" d="M204.27,201.3a5.18,5.18,0,0,1-2.36-.52,5.12,5.12,0,0,0-2.31-.5,5.3,5.3,0,0,0-2.35.5,5.5,5.5,0,0,1-4.71,0,5.33,5.33,0,0,0-2.27-.48,5.11,5.11,0,0,0-2.32.49,5.22,5.22,0,0,1-2.37.53v1.44a5.09,5.09,0,0,0,2.37-.53,5.25,5.25,0,0,1,2.32-.48,5.18,5.18,0,0,1,2.27.48,5.59,5.59,0,0,0,4.71,0,5.73,5.73,0,0,1,4.66,0,5,5,0,0,0,2.35.52V201.3"/><path class="cls-29" d="M204.26,204.19a5.1,5.1,0,0,1-2.35-.52,5.73,5.73,0,0,0-4.66,0,5.3,5.3,0,0,1-2.35.51,5.14,5.14,0,0,1-2.36-.54,5.18,5.18,0,0,0-2.27-.47,5.12,5.12,0,0,0-2.32.48,5.22,5.22,0,0,1-2.37.53v-1.44a5.09,5.09,0,0,0,2.37-.54,5.25,5.25,0,0,1,2.32-.48,5.18,5.18,0,0,1,2.27.48,5.59,5.59,0,0,0,4.71,0,5.73,5.73,0,0,1,4.66,0,5.05,5.05,0,0,0,2.36.52v1.45"/><path class="cls-28" d="M204.26,205.64a5.1,5.1,0,0,1-2.35-.52,5.12,5.12,0,0,0-2.31-.5,5.3,5.3,0,0,0-2.35.5,5.3,5.3,0,0,1-2.35.52,5.14,5.14,0,0,1-2.36-.54,5.18,5.18,0,0,0-2.27-.48,5.11,5.11,0,0,0-2.32.49,5.22,5.22,0,0,1-2.37.53V204.2a5.22,5.22,0,0,0,2.37-.54,5.12,5.12,0,0,1,2.32-.48,5.33,5.33,0,0,1,2.27.47,5.14,5.14,0,0,0,2.36.54,5.3,5.3,0,0,0,2.35-.51,5.73,5.73,0,0,1,4.66,0,5.15,5.15,0,0,0,2.36.52v1.45Z"/><path class="cls-30" d="M189.65,192.47a1.53,1.53,0,0,1,.08.37,1.63,1.63,0,0,1-1.68,1.58h13.76a1.64,1.64,0,0,1-1.69-1.58,1.51,1.51,0,0,1,.06-.37.8.8,0,0,1-.27,0h-10A1.07,1.07,0,0,1,189.65,192.47Z"/><path class="cls-31" d="M189.9,191.56h10c.35,0,.62.21.62.47s-.27.47-.62.47h-10a.49.49,0,1,1,0-.94Z"/><path class="cls-31" d="M188.06,197.92h13.73v-3.5H188.06Z"/><path class="cls-29" d="M190,191h9.75V143.21H190Z"/><path class="cls-32" d="M197,143.28V191m1.1-47.68V191"/><path class="cls-31" d="M188.25,139.42h13.37v-3.5H188.25v3.5Z"/><path class="cls-30" d="M189.65,141.76a.53.53,0,0,1,.25,0h10a.78.78,0,0,1,.28,0,.83.83,0,0,1-.59-.79.88.88,0,0,1,.61-.8.88.88,0,0,1-.29.05h-10a.82.82,0,0,1-.28,0l0,0a.78.78,0,0,1,.57.77.84.84,0,0,1-.59.79Z"/><path class="cls-31" d="M189.9,141.71h10c.35,0,.62.21.62.47s-.27.48-.62.48h-10a.49.49,0,1,1,0-.95Z"/><path class="cls-31" d="M189.9,139.42h10c.34,0,.62.18.62.4s-.28.4-.62.4h-10c-.34,0-.61-.18-.61-.4S189.56,139.42,189.9,139.42Z"/></g></g><g id="ribbon_right" data-name="ribbon right"><g id="ribbon_left-2" data-name="ribbon left"><path class="cls-33" d="M202.85,179.17c1.36.78,2.28,1.59,2.13,2s-.5.64-1.12,1.05c-1,.68-1.56,1.88-1.1,2.44a3.45,3.45,0,0,1,.09-5.48Z"/><path class="cls-34" d="M180.1,161.08a31.35,31.35,0,0,1,9.9-1.67,32,32,0,0,1,4.67.42c5.83,1,10.28,3.31,9.92,5.21a.8.8,0,0,1,0,.15s2.19-4.92,2.22-5.11c.39-2.11-4.53-4.69-11-5.77a33,33,0,0,0-5.73-.46,31.15,31.15,0,0,0-9.91,1.34l0,5.89"/><path class="cls-33" d="M199.83,167.08c2.71-.19,4.55-.92,4.76-2,.17-.9-.75-1.91-2.38-2.81a21.56,21.56,0,0,1-2.4.18l0,4.67"/><path class="cls-33" d="M190,163.43a8.13,8.13,0,0,0-3.58,1.19l-.06.1c-.3.62,1.18,1.94,3.66,3.41l0-4.7"/><path class="cls-34" d="M205.89,176.3c.26-.77-2.38-2.32-6.11-3.69-1.7-.6-3.11-1.24-4.85-2-5.18-2.29-9-4.92-8.53-5.87l0-.1c-.28.23-.71,4.94-.71,4.94-.47.88,3,3.47,7.8,5.75,1.53.73,4.75,1.92,6.27,2.45,2.72.95,5.42,2.73,5.17,3.39l.91-4.86Z"/></g></g><g id="plus_ultra" data-name="plus ultra"><path class="cls-5" d="M99.85,158.79c1.2-.43,2-.95,1.6-1.88-.25-.6-.86-.72-1.78-.38l-1.63.59,1.46,3.62.49-.2.51-.16-.65-1.58ZM99.14,157l.42-.15a.73.73,0,0,1,.9.48.72.72,0,0,1-.3.93,3.23,3.23,0,0,1-.42.2l-.6-1.46"/><path class="cls-5" d="M103.67,155.53a4.94,4.94,0,0,1-.52.13l-.53.08.85,3.76,2.63-.52c0-.08-.07-.16-.09-.23s0-.17,0-.25c-.46.13-1,.28-1.57.4l-.75-3.37"/><path class="cls-5" d="M108.94,158.78c.49-1.37,1.09-2.68,1.68-4l-.32,0H110c-.31,1-.7,1.92-1.12,2.88-.49-.91-1-1.8-1.46-2.71-.2,0-.41.06-.61.07s-.42,0-.63,0c.76,1.23,1.49,2.46,2.19,3.73l.3,0a1.55,1.55,0,0,1,.3,0"/><path class="cls-5" d="M114.43,155.88c.09-.19.19-.36.29-.53a2.1,2.1,0,0,0-1.09-.38c-1.07-.11-1.68.36-1.75,1-.16,1.36,2,1.24,1.88,2.14,0,.39-.45.54-.89.5a.93.93,0,0,1-.9-.71h-.14a5,5,0,0,1-.28.69,2.59,2.59,0,0,0,1.11.35c1.09.11,1.93-.32,2-1,.13-1.29-2-1.37-1.94-2.13,0-.32.28-.53.84-.47a.82.82,0,0,1,.75.57h.11"/><path class="cls-5" d="M186.18,159c.37-1.4.85-2.75,1.31-4.12a1.7,1.7,0,0,1-.31.06l-.33,0c-.22,1-.53,2-.85,3-.58-.87-1.2-1.71-1.7-2.58l-.61.12c-.2,0-.41,0-.62.06.87,1.17,1.71,2.34,2.52,3.55a1.32,1.32,0,0,1,.3-.07,1.37,1.37,0,0,1,.29,0"/><path class="cls-5" d="M189.89,154.9c-.18,0-.36,0-.53,0s-.36,0-.53,0l-.08,3.84,2.7.05a1.09,1.09,0,0,1,0-.24,1.72,1.72,0,0,1,0-.24c-.48,0-1,.06-1.62,0l.06-3.43"/><path class="cls-5" d="M194.11,155.53c.43,0,.85.11,1.26.18a1.93,1.93,0,0,1,0-.24,2.1,2.1,0,0,1,.06-.24l-3.64-.3a2,2,0,0,1,0,.24,1.68,1.68,0,0,1-.06.24,12.53,12.53,0,0,1,1.33,0l-.32,3.46a4.78,4.78,0,0,1,.53,0,4.34,4.34,0,0,1,.52.07l.32-3.46"/><path class="cls-5" d="M195.61,159.32c.17,0,.35.05.52.09a4.25,4.25,0,0,1,.51.14l.44-1.77h0l.3.71.54,1.33.63.11.62.17-.18-.4c-.29-.6-.6-1.21-.85-1.81.67,0,1.19-.22,1.32-.76a.83.83,0,0,0-.41-.92,3.84,3.84,0,0,0-1.1-.36l-1.46-.32-.92,3.78m1.88-3.25c.43.09.95.16.95.64a1.17,1.17,0,0,1,0,.29c-.14.56-.57.75-1.28.54l.36-1.47"/><path class="cls-5" d="M202.54,160.48c0,.41-.11.82-.18,1.26.18.08.36.16.54.26l.51.31.36-4.34-.24-.11-.23-.14-3.82,2.43a1.68,1.68,0,0,1,.3.15l.28.16c.33-.27.66-.49,1.05-.78l1.43.79Zm-1.08-1,1.27-.82-.15,1.44-1.12-.62"/></g></g><g id="crown_crest" data-name="crown crest"><path class="cls-9" d="M149.79,109.63a28.57,28.57,0,0,1,9.85,1.51,18.55,18.55,0,0,0,5,1.3,20,20,0,0,0,4.11.14,16.3,16.3,0,0,1,6.37,1.49,17.4,17.4,0,0,1,4.68,3l-.94.84-.27,2.37-2.58,3-1.29,1.09-3.06,2.45-1.56.12-.47,1.35-19.75-2.31-19.81,2.31-.47-1.35-1.57-.12-3-2.45-1.29-1.09-2.58-3-.26-2.37-1-.84a17.24,17.24,0,0,1,4.68-3,16.27,16.27,0,0,1,6.37-1.49,20,20,0,0,0,4.11-.14,18.55,18.55,0,0,0,5-1.3,27.37,27.37,0,0,1,9.65-1.51Z"/><path class="cls-31" d="M135.2,114.85l.83.67,1.25-2a4.63,4.63,0,0,1-2.28-3.91,3.27,3.27,0,0,1,0-.54c.12-2.61,3.3-4.76,7.32-4.76a9.45,9.45,0,0,1,5.3,1.49c0-.4.07-.75.13-1.11a10.79,10.79,0,0,0-5.43-1.37c-4.63,0-8.25,2.63-8.42,5.74a5.21,5.21,0,0,0,0,.55,5.55,5.55,0,0,0,2,4.2l-.66,1.08"/><path class="cls-31" d="M135.26,114.88a5.79,5.79,0,0,1-2.56-4.55,6.13,6.13,0,0,1,3.34-5,5.33,5.33,0,0,0-2.1,3.74,5.21,5.21,0,0,0,0,.55,5.55,5.55,0,0,0,2,4.2l-.6,1.11"/><path class="cls-31" d="M121.33,116.93a5.47,5.47,0,0,1-1.43-3.67,5.57,5.57,0,0,1,.54-2.37c1.28-2.63,5.3-4.54,10.06-4.54a16.6,16.6,0,0,1,3.68.4,6.06,6.06,0,0,0-.64.89,15.68,15.68,0,0,0-3-.29c-4.36,0-8,1.7-9.07,4a4.43,4.43,0,0,0-.44,1.92,4.54,4.54,0,0,0,1.67,3.49l-1.57,2.58-.85-.67,1.09-1.73Z"/><path class="cls-31" d="M122.94,108.29a6.58,6.58,0,0,0-2.5,2.6,5.57,5.57,0,0,0-.54,2.37,5.47,5.47,0,0,0,1.43,3.67l-1,1.56a6.53,6.53,0,0,1-1.46-4c0-2.52,1.61-4.72,4-6.18Z"/><path class="cls-31" d="M150,102.76a2.22,2.22,0,0,1,2.19,1.64,17.87,17.87,0,0,1,.24,2.77c0,.11,0,.21,0,.31s0,.25,0,.37a16.35,16.35,0,0,0,.76,5.11L150,116.05,146.77,113a16.61,16.61,0,0,0,.77-5.11c0-.12,0-.25,0-.37v-.31a20.72,20.72,0,0,1,.24-2.77,2.27,2.27,0,0,1,2.22-1.64Z"/><path class="cls-31" d="M150,103.76a1.14,1.14,0,0,1,1.13.84,18.59,18.59,0,0,1,.24,2.63c0,.09,0,.19,0,.28s0,.24,0,.36a15.38,15.38,0,0,0,.73,4.83l-2.12,2-2.13-2a16,16,0,0,0,.73-4.83c0-.12,0-.24,0-.36v-.28a16,16,0,0,1,.24-2.63A1.15,1.15,0,0,1,150,103.76Z"/><path class="cls-31" d="M164.82,114.85l-.83.67-1.25-2a4.63,4.63,0,0,0,2.28-3.91,4.89,4.89,0,0,0,0-.54c-.13-2.61-3.3-4.76-7.32-4.76a9.43,9.43,0,0,0-5.31,1.49c0-.4-.07-.75-.13-1.11a10.83,10.83,0,0,1,5.44-1.37c4.62,0,8.24,2.63,8.42,5.74,0,.19,0,.37,0,.55a5.57,5.57,0,0,1-2,4.2l.67,1.08"/><path class="cls-31" d="M164.77,114.88a5.82,5.82,0,0,0,2.56-4.55,6.12,6.12,0,0,0-3.35-5,5.34,5.34,0,0,1,2.11,3.74c0,.19,0,.37,0,.55a5.57,5.57,0,0,1-2,4.2l.62,1.11"/><path class="cls-31" d="M178.7,116.93a5.52,5.52,0,0,0,1.43-3.67,5.43,5.43,0,0,0-.55-2.37c-1.28-2.63-5.29-4.54-10.06-4.54a16.9,16.9,0,0,0-3.69.4,6.21,6.21,0,0,1,.66.89,15.5,15.5,0,0,1,3-.29c4.37,0,8,1.7,9.07,4a4.43,4.43,0,0,1,.44,1.92,4.55,4.55,0,0,1-1.68,3.49l1.58,2.58.85-.67Z"/><path class="cls-31" d="M177.08,108.29a6.58,6.58,0,0,1,2.5,2.6,5.43,5.43,0,0,1,.55,2.37,5.52,5.52,0,0,1-1.43,3.67l1,1.56a6.51,6.51,0,0,0,1.44-4c0-2.52-1.6-4.72-4-6.18Z"/><ellipse class="cls-39" cx="150.03" cy="100.38" rx="2.66" ry="2.52"/><path class="cls-4" d="M149.33,93.32v1.36h-1.45v1.38h1.45v4H147.5c0,.12-.13.22-.13.35a2.3,2.3,0,0,0,.21,1s0,0,0,0h4.87l0,0a2.46,2.46,0,0,0,.21-1c0-.13-.11-.23-.13-.35h-1.78v-4h1.45V94.68h-1.45V93.32Z"/><ellipse class="cls-40" cx="150.02" cy="113.36" rx="1.15" ry="1.08"/><ellipse class="cls-40" cx="150.02" cy="111.24" rx="1.15" ry="1.08"/><ellipse class="cls-40" cx="150.02" cy="108.96" rx="0.91" ry="0.86"/><ellipse class="cls-40" cx="150.02" cy="106.91" rx="0.66" ry="0.62"/><ellipse class="cls-40" cx="150.02" cy="105.11" rx="0.53" ry="0.5"/><ellipse class="cls-40" cx="119.36" cy="119.2" rx="0.66" ry="0.62"/><ellipse class="cls-40" cx="118.46" cy="117.61" rx="0.66" ry="0.62"/><ellipse class="cls-40" cx="117.86" cy="115.76" rx="0.66" ry="0.62"/><ellipse class="cls-40" cx="117.79" cy="113.78" rx="0.66" ry="0.62"/><ellipse class="cls-40" cx="118.27" cy="111.84" rx="0.66" ry="0.62"/><ellipse class="cls-40" cx="119.29" cy="110.07" rx="0.66" ry="0.62"/><ellipse class="cls-40" cx="120.64" cy="108.61" rx="0.66" ry="0.62"/><ellipse class="cls-40" cx="122.21" cy="107.41" rx="0.66" ry="0.62"/><ellipse class="cls-40" cx="124.08" cy="106.42" rx="0.66" ry="0.62"/><ellipse class="cls-40" cx="126.02" cy="105.71" rx="0.66" ry="0.62"/><ellipse class="cls-40" cx="128.2" cy="105.32" rx="0.66" ry="0.62"/><ellipse class="cls-40" cx="130.26" cy="105.22" rx="0.66" ry="0.62"/><ellipse class="cls-40" cx="132.28" cy="105.29" rx="0.66" ry="0.62"/><ellipse class="cls-40" cx="134.53" cy="114.19" rx="0.66" ry="0.62"/><ellipse class="cls-40" cx="133.4" cy="112.59" rx="0.66" ry="0.62"/><ellipse class="cls-40" cx="132.81" cy="110.85" rx="0.66" ry="0.62"/><ellipse class="cls-40" cx="132.88" cy="108.94" rx="0.66" ry="0.62"/><ellipse class="cls-40" cx="133.3" cy="107.02" rx="0.66" ry="0.62"/><ellipse class="cls-40" cx="134.3" cy="105.29" rx="0.66" ry="0.62"/><ellipse class="cls-40" cx="135.84" cy="104.08" rx="0.66" ry="0.62"/><ellipse class="cls-40" cx="137.63" cy="103.09" rx="0.66" ry="0.62"/><ellipse class="cls-40" cx="139.62" cy="102.49" rx="0.66" ry="0.62"/><ellipse class="cls-40" cx="141.68" cy="102.14" rx="0.66" ry="0.62"/><ellipse class="cls-40" cx="143.7" cy="102.17" rx="0.66" ry="0.62"/><ellipse class="cls-40" cx="145.79" cy="102.52" rx="0.66" ry="0.62"/><ellipse class="cls-40" cx="147.74" cy="103.19" rx="0.66" ry="0.62"/><ellipse class="cls-40" cx="152.28" cy="103.19" rx="0.66" ry="0.62"/><ellipse class="cls-40" cx="154.22" cy="102.52" rx="0.66" ry="0.62"/><ellipse class="cls-40" cx="156.32" cy="102.17" rx="0.66" ry="0.62"/><ellipse class="cls-40" cx="158.34" cy="102.14" rx="0.66" ry="0.62"/><ellipse class="cls-40" cx="160.4" cy="102.49" rx="0.66" ry="0.62"/><ellipse class="cls-40" cx="162.38" cy="103.09" rx="0.66" ry="0.62"/><ellipse class="cls-40" cx="164.18" cy="104.08" rx="0.66" ry="0.62"/><ellipse class="cls-40" cx="165.71" cy="105.29" rx="0.66" ry="0.62"/><ellipse class="cls-40" cx="166.73" cy="107.02" rx="0.66" ry="0.62"/><ellipse class="cls-40" cx="167.14" cy="108.94" rx="0.66" ry="0.62"/><ellipse class="cls-40" cx="167.21" cy="110.85" rx="0.66" ry="0.62"/><ellipse class="cls-40" cx="166.61" cy="112.59" rx="0.66" ry="0.62"/><ellipse class="cls-40" cx="165.5" cy="114.19" rx="0.66" ry="0.62"/><ellipse class="cls-40" cx="167.74" cy="105.29" rx="0.66" ry="0.62"/><ellipse class="cls-40" cx="169.76" cy="105.22" rx="0.66" ry="0.62"/><ellipse class="cls-40" cx="171.83" cy="105.32" rx="0.66" ry="0.62"/><ellipse class="cls-40" cx="174" cy="105.71" rx="0.66" ry="0.62"/><ellipse class="cls-40" cx="175.94" cy="106.42" rx="0.66" ry="0.62"/><ellipse class="cls-40" cx="177.82" cy="107.41" rx="0.66" ry="0.62"/><ellipse class="cls-40" cx="179.38" cy="108.61" rx="0.66" ry="0.62"/><ellipse class="cls-40" cx="180.73" cy="110.07" rx="0.66" ry="0.62"/><ellipse class="cls-40" cx="181.75" cy="111.84" rx="0.66" ry="0.62"/><ellipse class="cls-40" cx="182.23" cy="113.78" rx="0.66" ry="0.62"/><ellipse class="cls-40" cx="182.16" cy="115.76" rx="0.66" ry="0.62"/><ellipse class="cls-40" cx="181.56" cy="117.61" rx="0.66" ry="0.62"/><ellipse class="cls-40" cx="180.66" cy="119.2" rx="0.66" ry="0.62"/><path class="cls-31" d="M150.09,135.71a67.9,67.9,0,0,1-18.65-2.3.77.77,0,0,1,0-1.45,67.9,67.9,0,0,1,18.65-2.3,67.9,67.9,0,0,1,18.65,2.3.69.69,0,0,1,.5.7.72.72,0,0,1-.5.75,67.9,67.9,0,0,1-18.65,2.3"/><path class="cls-31" d="M150,129.65a67.71,67.71,0,0,0-18.83,2.4c.39-.18.35-.67-.13-1.92-.59-1.51-1.5-1.45-1.5-1.45a76.51,76.51,0,0,1,20.49-2.51,77.07,77.07,0,0,1,20.56,2.51s-.91-.06-1.5,1.45c-.49,1.25-.52,1.74-.13,1.92a68.66,68.66,0,0,0-19-2.4"/><path class="cls-31" d="M150.07,126.18a75.7,75.7,0,0,0-20.49,2.51.65.65,0,0,1-.83-.36.63.63,0,0,1,.42-.81,75.62,75.62,0,0,1,20.9-2.63c8.26,0,15.72,1,20.94,2.63a.63.63,0,0,1,.42.81.65.65,0,0,1-.83.36,76,76,0,0,0-20.53-2.51"/><path class="cls-31" d="M150.12,119.87l.74.13a2.62,2.62,0,0,0-.15,1,2.88,2.88,0,0,0,3,2.79,2.94,2.94,0,0,0,2.8-1.93c.05,0,.28-1,.41-1s.09,1.08.13,1.06a2.84,2.84,0,0,0,2.92,2.36,2.87,2.87,0,0,0,2.95-2.79,2.07,2.07,0,0,0,0-.35l.93-.91.49,1.17a2.59,2.59,0,0,0-.27,1.21,2.74,2.74,0,0,0,2.81,2.67,2.85,2.85,0,0,0,2.34-1.18l.6-.75v.91a1.72,1.72,0,0,0,1.3,1.91,4,4,0,0,0,2.41-1,15.54,15.54,0,0,0,2.13-2l.12,1.08a9.11,9.11,0,0,1-2.38,2.49,4.36,4.36,0,0,1-2.54.68,2.49,2.49,0,0,1-1.8-1.65,4.14,4.14,0,0,1-2.13.58,4.06,4.06,0,0,1-3.79-2.31,4.18,4.18,0,0,1-3.12,1.35,4.37,4.37,0,0,1-3.35-1.54,4.27,4.27,0,0,1-2.92,1.12,4.32,4.32,0,0,1-3.57-1.83,4.3,4.3,0,0,1-3.56,1.83,4.26,4.26,0,0,1-2.92-1.12,4.38,4.38,0,0,1-3.35,1.54,4.17,4.17,0,0,1-3.12-1.35,4.08,4.08,0,0,1-3.79,2.31,4.14,4.14,0,0,1-2.13-.58,2.49,2.49,0,0,1-1.81,1.65,4.35,4.35,0,0,1-2.53-.68,9,9,0,0,1-2.39-2.49l.12-1.08a16.09,16.09,0,0,0,2.14,2,3.86,3.86,0,0,0,2.41,1c.9-.15,1.29-1,1.29-1.91v-.91l.59.75a2.88,2.88,0,0,0,2.34,1.18,2.74,2.74,0,0,0,2.82-2.67,2.48,2.48,0,0,0-.28-1.21l.5-1.17.92.91c0,.12,0,.23,0,.35a3,3,0,0,0,5.87.43s0-1,.13-1.06.36,1,.41,1a2.93,2.93,0,0,0,2.8,1.93,2.87,2.87,0,0,0,3-2.79,2.62,2.62,0,0,0-.14-1l.77-.13"/><path class="cls-31" d="M125,123.79a1.28,1.28,0,0,0-.43-.63,1.07,1.07,0,0,0-1.42-.15.78.78,0,0,0-.1.15,4.79,4.79,0,0,0-1.44-1.67,4.62,4.62,0,0,0-2.1-.31,1.76,1.76,0,0,1,1.8-1.74,1.89,1.89,0,0,1,1.48.67l.14-.64a1.76,1.76,0,0,1,1.19,1.09,4.16,4.16,0,0,1,0,2.28,4.26,4.26,0,0,1,.51-1,5.08,5.08,0,0,1,1.5-1,7,7,0,0,0,.82-.48,3,3,0,0,1,0,.37,2.57,2.57,0,0,1,0,.5,4.83,4.83,0,0,1,2.3.28,2.91,2.91,0,0,1-1.57,1.38s.26.22.5.45a2.71,2.71,0,0,1,.26.3l-.76.11a9.57,9.57,0,0,1-1.61.13,8.1,8.1,0,0,1-1-.13"/><path class="cls-33" d="M123.17,123a1.07,1.07,0,0,1,1.42.15c.48.4.61,1,.31,1.31a1.09,1.09,0,0,1-1.42-.15c-.47-.41-.61-1-.31-1.31"/><path class="cls-40" d="M129.83,123.55c-.16-.5,0-1,.35-1.1s.79.2,1,.69,0,1-.35,1.11-.78-.21-1-.7"/><path class="cls-31" d="M135.67,121.12a1.14,1.14,0,0,1-.4-.65,1.05,1.05,0,0,1,.14-.74,6.76,6.76,0,0,0-1.1-.41,6.53,6.53,0,0,0-1.42-.12c-.23,0-.69,0-.69,0a3.21,3.21,0,0,0,.17.33,4.76,4.76,0,0,0,.3.45,3.1,3.1,0,0,0-1.82,1.25,3.29,3.29,0,0,0,2.16.58,3.65,3.65,0,0,0-.12.52,2.81,2.81,0,0,0,0,.37l.64-.24a7.66,7.66,0,0,0,1.29-.57,6.83,6.83,0,0,0,.89-.75"/><path class="cls-31" d="M135.41,115a3.2,3.2,0,0,1,1.38,1.82,1.2,1.2,0,0,1,.42-.36,1.56,1.56,0,0,1,.66-.19s-.1.58-.15.79-.06.83-.19,1.4a5,5,0,0,1-.38,1,1.21,1.21,0,0,0-1-.24,1.09,1.09,0,0,0-.79.54,5,5,0,0,1-.73-.83c-.33-.49-.56-1.07-.68-1.25s-.43-.69-.43-.69a1.34,1.34,0,0,1,.69,0,1,1,0,0,1,.52.19,3,3,0,0,1,.63-2.15"/><path class="cls-31" d="M137.38,120.83a1.11,1.11,0,0,0,.15-.74,1.06,1.06,0,0,0-.4-.64,6.08,6.08,0,0,1,.88-.76,7.66,7.66,0,0,1,1.29-.57l.64-.24s0,.11,0,.37a3.65,3.65,0,0,1-.12.52,3.24,3.24,0,0,1,2.16.59,3.18,3.18,0,0,1-1.82,1.25,3,3,0,0,1,.3.44,2.62,2.62,0,0,1,.17.34l-.69,0a7.23,7.23,0,0,1-1.42-.12,6.61,6.61,0,0,1-1.11-.42"/><ellipse class="cls-33" cx="136.42" cy="120.27" rx="1.3" ry="1.24"/><path class="cls-40" d="M142.66,121.06c-.07-.52.18-1,.55-1s.74.34.81.87-.18,1-.56,1-.73-.35-.8-.87"/><path class="cls-31" d="M149.1,119.9a1.22,1.22,0,0,1-.32-.8,1.18,1.18,0,0,1,.31-.79,7.07,7.07,0,0,0-1.14-.67,8.27,8.27,0,0,0-1.56-.41l-.76-.14a2.72,2.72,0,0,0,.12.4,4.21,4.21,0,0,0,.24.56,3.64,3.64,0,0,0-2.29,1.06,3.73,3.73,0,0,0,2.29,1,3.69,3.69,0,0,0-.24.55,2.56,2.56,0,0,0-.12.41l.76-.15a8.13,8.13,0,0,0,1.56-.4,8.48,8.48,0,0,0,1.15-.67"/><path class="cls-31" d="M150.07,113a3.52,3.52,0,0,1,1.17,2.29,1.17,1.17,0,0,1,.54-.32,1.61,1.61,0,0,1,.77-.1s-.23.63-.33.86-.23.91-.5,1.51a5.75,5.75,0,0,1-.63,1.06,1.35,1.35,0,0,0-2,0,5.75,5.75,0,0,1-.63-1.06c-.27-.6-.4-1.29-.5-1.51s-.34-.86-.34-.86a1.61,1.61,0,0,1,.77.1,1.27,1.27,0,0,1,.55.32,3.53,3.53,0,0,1,1.14-2.29"/><path class="cls-31" d="M151.06,119.9a1.21,1.21,0,0,0,.31-.8,1.17,1.17,0,0,0-.3-.79,6.58,6.58,0,0,1,1.14-.67,8.08,8.08,0,0,1,1.56-.41l.75-.14a1.85,1.85,0,0,1-.11.4,4.21,4.21,0,0,1-.24.56,3.64,3.64,0,0,1,2.29,1.06,3.71,3.71,0,0,1-2.29,1,3.69,3.69,0,0,1,.24.55,1.82,1.82,0,0,1,.11.41l-.75-.15a8,8,0,0,1-1.56-.4,7.8,7.8,0,0,1-1.15-.67"/><ellipse class="cls-33" cx="150.08" cy="119.1" rx="1.3" ry="1.24"/><path class="cls-40" d="M157.55,121.06c.06-.52-.18-1-.56-1s-.74.34-.8.87.18,1,.55,1,.74-.35.81-.87"/><path class="cls-31" d="M162.83,120.83a1.11,1.11,0,0,1-.15-.74,1.06,1.06,0,0,1,.4-.64,6.08,6.08,0,0,0-.88-.76,7.71,7.71,0,0,0-1.3-.57l-.63-.24a1.76,1.76,0,0,0,0,.37,3.65,3.65,0,0,0,.12.52,3.24,3.24,0,0,0-2.16.59,3.15,3.15,0,0,0,1.81,1.25,3.57,3.57,0,0,0-.29.44,2.62,2.62,0,0,0-.17.34l.69,0a7.28,7.28,0,0,0,1.42-.12,6.31,6.31,0,0,0,1.1-.42"/><path class="cls-31" d="M164.8,115a3.2,3.2,0,0,0-1.38,1.82,1.19,1.19,0,0,0-.43-.36,1.5,1.5,0,0,0-.65-.19s.1.58.15.79.06.83.19,1.4a5,5,0,0,0,.38,1,1.2,1.2,0,0,1,.94-.24,1.11,1.11,0,0,1,.8.54,5,5,0,0,0,.73-.83c.32-.49.55-1.07.67-1.25s.43-.69.43-.69a1.31,1.31,0,0,0-.68,0,1.12,1.12,0,0,0-.53.19,3,3,0,0,0-.62-2.15"/><path class="cls-31" d="M164.53,121.12a1,1,0,0,0,.4-.65,1,1,0,0,0-.13-.74,6.76,6.76,0,0,1,1.1-.41,6.53,6.53,0,0,1,1.42-.12c.23,0,.69,0,.69,0a3.21,3.21,0,0,1-.17.33,4.76,4.76,0,0,1-.3.45,3.13,3.13,0,0,1,1.82,1.25,3.29,3.29,0,0,1-2.16.58,3.65,3.65,0,0,1,.12.52c0,.26,0,.37,0,.37l-.63-.24a4.52,4.52,0,0,1-2.19-1.32"/><ellipse class="cls-33" cx="163.79" cy="120.27" rx="1.3" ry="1.24"/><path class="cls-40" d="M170.38,123.55c.16-.5,0-1-.35-1.1s-.79.2-1,.69,0,1,.34,1.11.79-.21,1-.7"/><path class="cls-31" d="M175.18,123.79a1.43,1.43,0,0,1,.43-.63A1.07,1.07,0,0,1,177,123a.83.83,0,0,1,.11.15,4.79,4.79,0,0,1,1.44-1.67,4.62,4.62,0,0,1,2.1-.31,1.76,1.76,0,0,0-1.8-1.74,1.87,1.87,0,0,0-1.48.67l-.14-.64a1.76,1.76,0,0,0-1.19,1.09,4.2,4.2,0,0,0,0,2.28,4,4,0,0,0-.5-1,5.08,5.08,0,0,0-1.5-1,6.11,6.11,0,0,1-.82-.48s0,.11,0,.37a3,3,0,0,0,0,.5,4.83,4.83,0,0,0-2.3.28,2.93,2.93,0,0,0,1.56,1.38l-.49.45a2.71,2.71,0,0,0-.26.3l.76.11a9.57,9.57,0,0,0,1.61.13,7.92,7.92,0,0,0,1-.13"/><path class="cls-33" d="M177,123a1.07,1.07,0,0,0-1.42.15c-.47.4-.61,1-.3,1.31a1.08,1.08,0,0,0,1.41-.15c.48-.41.62-1,.31-1.31"/><path class="cls-34" d="M150.07,134.74a71,71,0,0,1-17.21-2,71.12,71.12,0,0,1,17.21-1.92,71.41,71.41,0,0,1,17.25,1.92,71.27,71.27,0,0,1-17.25,2Z"/><path class="cls-16" d="M154.82,134.57V131M153,134.69l0-3.82m-1.35,3.87v-3.9"/><path class="cls-20" d="M150.57,134.78v-3.94"/><path class="cls-25" d="M149.5,134.78v-3.94"/><path class="cls-27" d="M148.49,134.78v-3.94"/><path class="cls-41" d="M147.49,134.78v-3.94"/><path class="cls-42" d="M146.59,134.78v-3.94"/><path class="cls-43" d="M144.89,134.57l0-3.58m.84,3.63v-3.75"/><path class="cls-44" d="M143.32,134.41v-3.3m.79,3.39,0-3.51"/><path class="cls-45" d="M141.21,134.22v-2.9m.69,3v-3.05m.71,3.14V131.2"/><path class="cls-46" d="M140.47,134.2v-2.81"/><path class="cls-47" d="M139.78,134.05v-2.61"/><path class="cls-48" d="M139,134v-2.44"/><path class="cls-49" d="M137.53,133.77l0-1.93m.8,2v-2.18"/><path class="cls-50" d="M136.76,133.61V131.9"/><path class="cls-51" d="M136,133.47v-1.42"/><path class="cls-52" d="M135.27,133.28v-1.11"/><path class="cls-53" d="M134.47,133.19v-.83"/><path class="cls-54" d="M133.63,133v-.41"/><path class="cls-32" d="M132.07,133a69.5,69.5,0,0,1,18-2.13,69.77,69.77,0,0,1,18,2.13"/><path class="cls-33" d="M130,130.3l.73-1,2,.26-1.62,1.18L130,130.3"/><path class="cls-40" d="M134.42,129.17a.66.66,0,1,1,.66.62.64.64,0,0,1-.66-.62"/><path class="cls-55" d="M140.18,129l-1.41.16a.65.65,0,0,1-.75-.54.63.63,0,0,1,.58-.69l1.42-.16,1.45-.17a.66.66,0,0,1,.74.54.64.64,0,0,1-.58.69l-1.45.17"/><path class="cls-40" d="M144.32,128a.66.66,0,0,1,1.32,0,.66.66,0,0,1-1.32,0"/><path class="cls-33" d="M150.09,128.5h-2a.65.65,0,0,1-.67-.62.64.64,0,0,1,.66-.63h4a.63.63,0,1,1,0,1.25h-2"/><path class="cls-40" d="M154.54,128a.66.66,0,0,1,1.32,0,.66.66,0,0,1-1.32,0"/><path class="cls-55" d="M160,129l1.41.16a.66.66,0,0,0,.75-.54.64.64,0,0,0-.58-.69l-1.42-.16-1.45-.17a.66.66,0,0,0-.74.54.64.64,0,0,0,.58.69L160,129"/><path class="cls-40" d="M164.44,129.17a.66.66,0,0,1,1.32,0,.66.66,0,0,1-1.32,0"/><path class="cls-33" d="M170.14,130.3l-.72-1-2,.26,1.62,1.18,1.13-.48"/></g><g id="shield"><g id="Granada"><path class="cls-56" d="M150.29,206.6a51.09,51.09,0,0,1-22.17-5.13,14.19,14.19,0,0,1-8-12.71v-20h60.25v20a14.16,14.16,0,0,1-8,12.71,50.5,50.5,0,0,1-22.05,5.13Z"/><path class="cls-57" d="M151.75,197.73a2.45,2.45,0,0,1,1.89,2.41c0,1.42-1.38,2.5-3.18,2.5s-3.26-1.08-3.26-2.5a2.19,2.19,0,0,1,1.85-2.37,1.43,1.43,0,0,0-.14-.3l-.39-.39a1.82,1.82,0,0,1,.75,0,1.72,1.72,0,0,1,.47.28,2,2,0,0,1,.31-.46,1.72,1.72,0,0,1,.42-.31,1.92,1.92,0,0,1,.36.38,2.14,2.14,0,0,1,.15.35,2.11,2.11,0,0,1,.48-.29,4.36,4.36,0,0,1,.5-.16s-.08.28-.13.42a2.54,2.54,0,0,0-.08.43"/><path class="cls-58" d="M150.19,204.19a16.18,16.18,0,0,0-3.42-1.82,16.76,16.76,0,0,0-3.45-.09s.77.56,1.1.89a6.14,6.14,0,0,0,2.06,1.14,7.21,7.21,0,0,0,3.71-.12"/><path class="cls-58" d="M150.88,204.34a6.52,6.52,0,0,1,3.12-1.82,8.82,8.82,0,0,1,3.87.35s-.61.3-.94.52a4.13,4.13,0,0,1-2.48,1c-1.31,0-2.75-.14-3-.1l-.58.09"/><path class="cls-59" d="M150.41,202.37a3,3,0,0,1,0-4.46,3,3,0,0,1,0,4.46"/><path class="cls-58" d="M149.81,205.63a6.52,6.52,0,0,0,.4-1.7,5.7,5.7,0,0,0-.09-1.3h.48a4.86,4.86,0,0,1,.23,1.3,14.15,14.15,0,0,1-.1,1.42,2.68,2.68,0,0,0-.44.1c-.12.06-.48.18-.48.18"/></g><g id="Aragon"><path class="cls-59" d="M150.19,188.74c0,7.9-6.69,14.29-15,14.29s-15.09-6.39-15.09-14.29v-20h30.12v20"/><path class="cls-60" d="M120,188.47a15.24,15.24,0,0,0,3.44,9.4V168.19h-3.4l0,20.28Z"/><path class="cls-60" d="M126.65,200.54a15.46,15.46,0,0,0,3.62,1.66L130.18,168h-3.53Z"/><path class="cls-60" d="M133.37,203a16.52,16.52,0,0,0,3.52,0V168h-3.52Z"/><path class="cls-60" d="M140,202.2a11.87,11.87,0,0,0,3.62-1.58V168h-3.53L140,202.2Z"/><path class="cls-60" d="M146.89,197.54c1.47-1.3,2.85-4.27,3.35-7.65l.08-21.87H146.8Z"/></g><g id="Navarre"><path class="cls-59" d="M180.39,168.73v20c0,7.9-6.77,14.29-15.1,14.29s-15.1-6.39-15.1-14.29v-20h30.2"/><path id="chains_half" data-name="chains half" class="cls-61" d="M163.63,183.68a2.56,2.56,0,0,1,.11-.24l-2.56-2.84-1,.43-1.83-2,.6-.88-3.21-3.59-.16,0,0,2.41,1.05.3v2.68l-1.05.29,0,2.45a1.53,1.53,0,0,1,1,1h1.93l.31-1h2.83l.3,1Zm-4.19-11.1v1h1.65v-1Zm-4.38,12.23a.67.67,0,1,0-.7-.66A.68.68,0,0,0,155.06,184.81Zm9.59-5.84-1.05-.29V176l1.05-.3v-1.15a1.61,1.61,0,0,1-1.08-1H162l-.3,1h-2.83l-.3-1h-1.86a2.48,2.48,0,0,1-.17.37l3.23,3.57,1-.42,1.83,2-.6.87,2.51,2.78.17-.07Zm-4.35-.84-.77.63,1.06,1.19.77-.63Zm4.8,21.72a1.61,1.61,0,0,1-1.5-1.21,11,11,0,0,1-2.84-.78l.5-.86a9.75,9.75,0,0,0,2.45.66,1.65,1.65,0,0,1,.95-.84v-3.37l-1-.29v-2.68l1-.29v-4.58l-.12-.05-2.38,2.65.6.86-1.84,2-1-.42-2,2.2a1.46,1.46,0,0,1-.07,1.71,9.37,9.37,0,0,0,1.95,1.65l-.51.86a10.27,10.27,0,0,1-2.27-1.93,1.67,1.67,0,0,1-1.56-.3,1.48,1.48,0,0,1-.18-2.18l.08-.1a9.77,9.77,0,0,1-.79-3h1a8.25,8.25,0,0,0,.65,2.56,1.89,1.89,0,0,1,.88.09l2-2.2-.6-.87,1.83-2,1,.43,2.39-2.66a1.46,1.46,0,0,1-.13-.28H162l-.3,1h-2.83l-.31-1h-1.94a1.63,1.63,0,0,1-1,1V188h-1v-2.4a1.58,1.58,0,0,1-1.15-1.48,1.6,1.6,0,0,1,1.16-1.49v-2.43l-1-.29v-2.68l1-.3v-2.43a1.55,1.55,0,0,1-1.1-1.47,1.59,1.59,0,0,1,1.64-1.54,1.62,1.62,0,0,1,1.56,1.06h1.86l.3-1h2.83l.3,1h1.61a1.63,1.63,0,0,1,1.54-1.06l0,5h-.51v1.56h.51l0,13h-.47v1.56h.47Zm-3.54-11-.78-.62-1.07,1.19.78.62Zm-6-11.06h-1v1.56h1Zm5.5,6.84v-1h-1.71v1Zm-6.36,5.82-1.06-.24-.15-2.67,1.05-.34v1.53a8.88,8.88,0,0,0,.16,1.72Zm.87-3.31,1,.24s.06,1.72,0,1.33.12,1.35.12,1.35l-1.06.35a8.47,8.47,0,0,1-.14-1.68Zm6.49,10.15.23-1a8.26,8.26,0,0,1-2.5-1.25l-.76.67a10,10,0,0,0,3,1.6Zm-.51.87-.78.73a11.3,11.3,0,0,1-2.47-1.27l.22-1.06a11,11,0,0,0,3,1.6Z"/><path id="chains_half-2" data-name="chains half" class="cls-61" d="M166.63,183.68a2.56,2.56,0,0,0-.11-.24l2.55-2.84,1,.43,1.83-2-.6-.88,3.21-3.59.16,0,0,2.41-1,.3v2.68l1,.29,0,2.45a1.55,1.55,0,0,0-1.05,1h-1.92l-.31-1h-2.83l-.3,1Zm4.19-11.1v1h-1.66v-1Zm4.38,12.23a.67.67,0,1,1,.7-.66A.69.69,0,0,1,175.2,184.81ZM165.61,179l1-.29V176l-1-.3v-1.15a1.61,1.61,0,0,0,1.08-1h1.6l.31,1h2.83l.3-1h1.86a1.76,1.76,0,0,0,.17.37l-3.23,3.57-1-.42-1.84,2,.6.87-2.5,2.78-.17-.07Zm4.35-.84.77.63L169.67,180l-.78-.63Zm-4.81,21.72a1.61,1.61,0,0,0,1.51-1.21,11.14,11.14,0,0,0,2.84-.78L169,197a9.75,9.75,0,0,1-2.45.66,1.65,1.65,0,0,0-1-.84v-3.37l1.06-.29v-2.68l-1.06-.29v-4.58a.43.43,0,0,0,.12-.05l2.39,2.65-.6.86,1.84,2,1-.42,2,2.2a1.46,1.46,0,0,0,.07,1.71,9.37,9.37,0,0,1-1.95,1.65l.51.86a10.27,10.27,0,0,0,2.27-1.93,1.67,1.67,0,0,0,1.56-.3,1.48,1.48,0,0,0,.18-2.18l-.08-.1a9.77,9.77,0,0,0,.79-3h-1a8.25,8.25,0,0,1-.65,2.56,1.87,1.87,0,0,0-.88.09l-2-2.2.6-.87-1.84-2-1,.43-2.39-2.66a1,1,0,0,0,.12-.28h1.66l.3,1h2.83l.31-1h1.94a1.6,1.6,0,0,0,1,1V188h1v-2.4a1.57,1.57,0,0,0,1.14-1.48,1.59,1.59,0,0,0-1.15-1.49v-2.43l1.05-.29v-2.68l-1.05-.3v-2.43a1.56,1.56,0,0,0,1.1-1.47,1.59,1.59,0,0,0-1.64-1.54,1.62,1.62,0,0,0-1.56,1.06h-1.86l-.3-1H168.6l-.31,1h-1.6a1.63,1.63,0,0,0-1.54-1.06l0,5h.51v1.56h-.51v13h.47v1.56h-.46Zm3.55-11,.78-.62,1.06,1.19-.77.62Zm6-11.06h1v1.56h-1Zm-5.5,6.84v-1h1.71v1Zm6.36,5.82,1.06-.24.15-2.67-1.05-.34v1.53a9.74,9.74,0,0,1-.16,1.72Zm-.87-3.31-1,.24s-.06,1.72,0,1.33-.12,1.35-.12,1.35l1.06.35a8.47,8.47,0,0,0,.14-1.68Zm-6.49,10.15-.23-1a8.38,8.38,0,0,0,2.5-1.25l.75.67a9.83,9.83,0,0,1-3,1.6Zm.51.87.78.73a11.3,11.3,0,0,0,2.47-1.27l-.23-1.06a10.92,10.92,0,0,1-3,1.6Z"/><path class="cls-62" d="M163.55,184.16a1.65,1.65,0,1,1,1.65,1.55,1.61,1.61,0,0,1-1.65-1.55"/></g><g id="Castile"><path class="cls-59" d="M120.07,168.75h30.11V135.32H120.07Z"/><path class="cls-63" d="M130.4,143.05h-.55v-.56h-1v2.22h1v1.53h-2.08v4.43h1.11v8.88h-2.22v4.57h17.05v-4.57H141.5v-8.88h1.11v-4.43h-2.08v-1.53h1v-2.22h-1v.56H140v-.56h-1v.56h-.69v-.56h-1v2.22h1v1.53h-2.08v-4.86h1.1v-2.22h-1.1v.56h-.56v-.56h-1v.56h-.55v-.56H133v2.22h1.11v4.86h-2.08v-1.53h1v-2.22h-1v.56h-.56v-.56H130.4v.56Zm-3.74,21.07h17.05M126.66,163h17.05m-17.05-1.11h17.05m-17.05-1.11h17.05m-17.05-1.24h17.05m-14.83-1H141.5m-12.62-1.11H141.5m-12.62-1.24H141.5m-12.62-1.11H141.5M128.88,154H141.5m-12.62-1.11H141.5m-12.62-1.11H141.5m-13.73-1.11h14.84m-14.84-1.11h14.84m-14.84-1.11h14.84m-14.84-1.1h14.84m-12.76-1.11h10.68m-6.38-1.11h2.08M134.15,144h2.08m-2.08-1.11h2.08m-2.08-1.11h2.08M133,140.41h4.29m-7.48,4.72h2.22m-3.19-1.39H133m-4.16,20.38V163m0-1.11v-1.11m-1.11,1.11V163m2.08,0V161.9m1.11,2.22V163m0-1.11v-1.11m0-1.24v-1m0-1.11v-1.24m-1.11,4.57v-1.24m-2.08,1.24v-1.24m4.3,0v1.24m1-1.24v-1m-3.19-1.11v1.11m2.22-1.11v1.11m2.08-1.11v1.11M133,157.46v-1.24m1.11-1.11v1.11m0-3.33V154M133,151.78v1.11m1.11-2.22v1.11m-2.08-1.11v1.11m-2.22-1.11v1.11m-1-2.22v1.11m2.08-1.11v1.11m2.08-1.11v1.11m1.11-2.22v1.11m-2.08-1.11v1.11m-2.22-1.11v1.11m-1-2.21v1.1m4.16-1.1v1.1M131,145.13v1.11m9.57-1.11h-2.22m3.19-1.39h-4.17m4.17,20.38V163m0-1.11v-1.11m1.11,1.11V163m-2.08,0V161.9m-1.11,2.22V163m0-1.11v-1.11m0-1.24v-1m0-1.11v-1.24m1.11,4.57v-1.24m2.08,1.24v-1.24m-4.3,0v1.24m-1-1.24v-1m3.2-1.11v1.11m-2.22-1.11v1.11m-2.08-1.11v1.11m1.1-1.11v-1.24m-1.1-1.11v1.11m0-3.33V154m1.1-2.22v1.11m-1.1-2.22v1.11m2.08-1.11v1.11m2.22-1.11v1.11m1-2.22v1.11m-2.08-1.11v1.11m-2.09-1.11v1.11m-1.1-2.22v1.11m2.08-1.11v1.11m2.22-1.11v1.11m1-2.21v1.1m-4.17-1.1v1.1m2.09-3.32v1.11m-4.3,11.22v-1.24m0-3.33v-1.11m0,3.33V154m0-3.33v-1.11m0-1.11v-1.1m0-2.22V144m0-1.11V141.8m-5.27,2.91h2.22m2.08-3.33h2.08m2.08,3.33h2.22"/><path class="cls-63" d="M138,164.12v-2.91c0-.55-.28-2.22-2.91-2.22s-2.77,1.67-2.77,2.22v2.91Z"/><path class="cls-63" d="M133.31,161.35l-1.38-.14c0-.55.14-1.39.56-1.66l1.24,1A1.64,1.64,0,0,0,133.31,161.35Z"/><path class="cls-63" d="M135.67,160l.7-1.25a3.34,3.34,0,0,0-1.25-.27,3.22,3.22,0,0,0-1.11.27l.69,1.25Z"/><path class="cls-63" d="M137.06,161.35l1.38-.14c0-.55-.13-1.39-.55-1.66l-1.25,1A1.56,1.56,0,0,1,137.06,161.35Z"/><path class="cls-63" d="M133,156.5v-3.06a1.53,1.53,0,0,0-3,0v3.06Z"/><path class="cls-63" d="M137.33,156.5v-3.06a1.53,1.53,0,0,1,3.06,0v3.06Z"/><path class="cls-63" d="M132.07,149l.13-2.77h-2.63l.28,2.77Z"/><path class="cls-63" d="M136.23,149l.28-2.77h-2.64L134,149Z"/><path class="cls-63" d="M138.31,149l-.28-2.77h2.77l-.27,2.77Z"/><path class="cls-64" d="M137.06,164.12v-2.49a1.73,1.73,0,0,0-1.94-1.67,1.69,1.69,0,0,0-1.81,1.67v2.49Z"/><path class="cls-64" d="M132.76,156.22v-2.64a1.25,1.25,0,1,0-2.49,0v2.64Z"/><path class="cls-64" d="M137.62,156.22v-2.64a1.25,1.25,0,1,1,2.49,0v2.64Z"/></g><g id="Leon"><path class="cls-56" d="M150.17,168.75h30.19V135.32H150.17Z"/><path class="cls-65" d="M165.56,143.56l0-.38,0-.2a5.38,5.38,0,0,1-1.47-.07,3.57,3.57,0,0,1-1.44-.75c-.48-.4-.66-.66-1-.7a2.27,2.27,0,0,0-1.44.24,2.68,2.68,0,0,1,1.07.78,3,3,0,0,0,1.17.92,12.52,12.52,0,0,0,1.93,0c.35,0,1.11.12,1.11.12Z"/><path class="cls-66" d="M170.08,142.2s0,.43,0,.84-.13.74-.06,1a2.37,2.37,0,0,0,.18.55,2.38,2.38,0,0,1,.12.57l-.44-.33-.36-.26s0,.43.06.62a1.59,1.59,0,0,0,.31.74,4.12,4.12,0,0,1,.63.8,3.16,3.16,0,0,1,.08.86s-.28-.45-.52-.53a6.84,6.84,0,0,1-.76-.37,1.63,1.63,0,0,1,.48.93,3.12,3.12,0,0,1-.2,1,2.82,2.82,0,0,0-.49-.67,7.15,7.15,0,0,0-.68-.54,3.76,3.76,0,0,1,.31,1.17c0,.47-.09,1.48-.09,1.48a2.54,2.54,0,0,0-.47-.58,4.62,4.62,0,0,1-.62-.47,2.2,2.2,0,0,1,.33.7,6.32,6.32,0,0,0,1.15,2.81c.56.83,1.43,2.27,3.3,1.79s1.18-3,.78-4.15a10.28,10.28,0,0,1-.56-2.92c0-.45.34-1.78.3-2a5.05,5.05,0,0,1,.09-2,9.48,9.48,0,0,1,.57-1.44,3.84,3.84,0,0,0,.27-.81,8.09,8.09,0,0,0,0-.82s.35.64.44.86a3.94,3.94,0,0,1,.09.9,1.44,1.44,0,0,1,.58-1,8.74,8.74,0,0,0,1.28-.86,1.5,1.5,0,0,0,.2-.31,4.08,4.08,0,0,1-.37,1.6c-.22.3-1.06,1.26-1.06,1.26a2.79,2.79,0,0,1,.73-.18,2.53,2.53,0,0,1,.53,0,4.48,4.48,0,0,0-.85,1c-.48.7-.28.76-.63,1.33s-.63.6-1.07.95c-.65.52-.3,2.61-.21,2.92a27.51,27.51,0,0,1,1.24,3.47,3.31,3.31,0,0,1-1,2.88c-.7.57-1.84.58-2.11.74a2,2,0,0,0-.77,1.75,1.5,1.5,0,0,0,.69,1.5c.3.27.69.12.78.33a1.14,1.14,0,0,0,.26.45.5.5,0,0,1,.18.49c-.05.23-.55.74-.72,1.11a8.58,8.58,0,0,0-.53,1.49,1.68,1.68,0,0,0,.11.82s.55.63.18.75-.47-.15-.59-.12c-.32.09-.49.29-.58.27s-.22-.15-.24-.45,0-.43-.11-.43-.19.1-.22.27,0,.53-.17.53-.37-.27-.5-.33-.5-.12-.52-.29a.71.71,0,0,1,.45-.57c.24-.06.46-.18.31-.31a.34.34,0,0,0-.46,0c-.15.13-.47,0-.45-.16a2.71,2.71,0,0,0,0-.52c0-.1-.28-.3.06-.49s.5.16.85.1a.75.75,0,0,0,.52-1.29c-.24-.27-.48-.31-.57-.48s-.21-.55-.21-.55a5.25,5.25,0,0,1,0,.82,2.64,2.64,0,0,0,0,.54l-.43-.48a2.78,2.78,0,0,1-.39-.82s0,.58,0,.8.26.44.17.52-.5-.43-.61-.52a2.16,2.16,0,0,1-.61-.63,4.66,4.66,0,0,1-.3-.85,2.51,2.51,0,0,1,0-.95l.28-.67h-.85c-.45,0-.78-.14-.95.16a2.76,2.76,0,0,0,.12,1.73,3.71,3.71,0,0,1,.29,1.33,1.88,1.88,0,0,1-.45.54.87.87,0,0,1-.55,0,1.61,1.61,0,0,0-.76-.16,4.58,4.58,0,0,1-.82,0c-.15,0-.53-.23-.7-.19s-.47.2-.39.44-.13.45-.31.43-.31-.09-.54-.15-.54,0-.49-.25.13-.26.24-.44.15-.31,0-.33a.55.55,0,0,0-.42.07c-.12.1-.31.31-.46.23s-.27-.26-.27-.65-.41-.72,0-.7.84.29.93.08,0-.31-.17-.47-.46-.26-.19-.46a4.43,4.43,0,0,0,.45-.33c.1-.11.24-.47.44-.38.37.18,0,.44.39.85a1.2,1.2,0,0,0,1.23.5c.63-.07.8-.15.8-.33a5.32,5.32,0,0,0-.07-.62,3.93,3.93,0,0,1,.09-.59,1.31,1.31,0,0,0-.38.35c-.08.17-.25.48-.25.48a3,3,0,0,1-.05-.65c0-.18.07-.48.07-.54a5.48,5.48,0,0,0-.14-.56,3.45,3.45,0,0,1-.17.56,2.78,2.78,0,0,0-.1.64,1,1,0,0,1-.28-.93c.07-.45-.08-1,.06-1.23s.45-1,1.24-1,1.38,0,1.66,0,1.24-.2,1.24-.2-1.79-.91-2.19-1.18a5.79,5.79,0,0,1-1.24-1.3,5.14,5.14,0,0,1-.39-.95,1.44,1.44,0,0,0-.61.18,3.11,3.11,0,0,0-.75.59,7.29,7.29,0,0,0-.43.63s0-.56,0-.74,0-.51,0-.51a2.21,2.21,0,0,1-.61,1c-.41.3-.88.69-.88.69s0-.42,0-.53.1-.59.1-.59a1.34,1.34,0,0,1-.73.52c-.44.07-1.08.06-1.14.33s.12.64,0,.84a1,1,0,0,1-.32.32,1.07,1.07,0,0,0-.48-.23.82.82,0,0,0-.42.1s-.19-.24-.12-.4.41-.4.33-.5-.36,0-.53.11-.53.16-.49-.11.12-.43,0-.63,0-.31.11-.36.67,0,.72-.12-.13-.28-.49-.36-.53-.3-.34-.47a1.26,1.26,0,0,0,.32-.38c.09-.17.12-.46.45-.31s.25.5.59.61a2.53,2.53,0,0,0,1.3-.15c.17-.09.72-.5.9-.59s1-.67,1-.67-.46-.32-.63-.48a4.67,4.67,0,0,0-.63-.63,5.53,5.53,0,0,0-1.15-.39,6.39,6.39,0,0,1-1-.29,2,2,0,0,0,.47-.21c.12-.09.39-.33.53-.31h.16a7.24,7.24,0,0,1-.88-.08,4.22,4.22,0,0,0-.76-.32,3.91,3.91,0,0,0-.5.06,2.69,2.69,0,0,1,.82-.35,3.81,3.81,0,0,1,.66-.05,1.87,1.87,0,0,1-.71-.35c-.13-.2-.27-.48-.37-.61s-.17-.34-.36-.35-.51.22-.69.21a.37.37,0,0,1-.34-.41c0-.27,0-.18-.06-.32s-.35-.48-.09-.56.79.05.85,0-.29-.39-.51-.49-.58-.31-.39-.47.37-.22.47-.37.22-.54.45-.42.52.76.69.71.18-.5.15-.69,0-.53.17-.5.31.26.58.28.67-.07.64.12a1.47,1.47,0,0,1-.37.64,1,1,0,0,0-.15.9,2.38,2.38,0,0,0,.69.89c.27.17.78.3,1.11.51a9.31,9.31,0,0,0,1.32.87,2.79,2.79,0,0,1,.51.19,1.74,1.74,0,0,1,.67-.13,6.26,6.26,0,0,0,1.63-.08c.34-.14.78-.38.65-.69s-.88-.58-.82-.82.34-.25.8-.27,1.08.08,1.2-.57.16-1-.49-1.15-1.12-.16-1.24-.62-.23-.58-.1-.71a1.36,1.36,0,0,1,.85-.22,4,4,0,0,0,1.17-.15c.15-.11.18-.42.37-.55a4.17,4.17,0,0,1,.92-.24,12.56,12.56,0,0,1,1.68,1,9.52,9.52,0,0,1,1.38,1.34"/><path class="cls-32" d="M161.4,146a1.41,1.41,0,0,0-.66.41,1.1,1.1,0,0,0-.2.64,1.1,1.1,0,0,1,.93-.2c.52.14.58.2.8.18a5.05,5.05,0,0,0,.76-.21s-.44.52-.39.87a3.49,3.49,0,0,1,.1.69,2.7,2.7,0,0,1-.36,1,2.06,2.06,0,0,1,.63-.21,2.78,2.78,0,0,0,1.05-.49,3.09,3.09,0,0,0,.54-.61,2.56,2.56,0,0,0,0,.85,4.49,4.49,0,0,1,.14,1,3.17,3.17,0,0,1,.51-.37,1.65,1.65,0,0,0,.54-.42,2.94,2.94,0,0,0,.19-.64,2.57,2.57,0,0,0,.24.81,6.31,6.31,0,0,1,.42,1,2.67,2.67,0,0,1,.36-.72,1.65,1.65,0,0,0,.42-.65,2.34,2.34,0,0,0,0-.51l.23.51m-6.84.37a2.3,2.3,0,0,1,.56-.66c.27-.16.64-.44.75-.48s.54-.28.54-.28m.59,3.11s.65-.33.85-.45a2.52,2.52,0,0,0,.69-.68"/><path class="cls-7" d="M169.54,144.54s-.2-.29-.25-.39-.14-.29-.14-.29"/><path class="cls-32" d="M167,154.45s1.22.75,1.19,1.38a3.47,3.47,0,0,1-.68,1.45"/><path class="cls-67" d="M163.83,141.74s-.1-.28-.12-.37a.84.84,0,0,0-.07-.17s.53,0,.51.16-.17.16-.21.22a.77.77,0,0,1-.11.16Z"/><path class="cls-68" d="M166.24,140.91l0-.26a1.45,1.45,0,0,1,.68.16,1.56,1.56,0,0,1,.54.63c-.06.05-.32-.16-.51-.22a1.36,1.36,0,0,1-.27,0,.22.22,0,0,1-.22-.13.37.37,0,0,1,0-.18Z"/><path class="cls-67" d="M163.85,144.08l.2-.31.2.29-.4,0"/><path class="cls-67" d="M164.33,144.07l.24-.32.26.29-.5,0"/><path class="cls-67" d="M164.12,142.1l.49.17-.44.23,0-.4"/><path class="cls-67" d="M164.71,142.26l.44.11-.35.27-.09-.38"/><path class="cls-65" d="M157.13,141.65a1.7,1.7,0,0,0,.51.24,3.92,3.92,0,0,0,.49,0,1.06,1.06,0,0,0-.71-1.43s.19.44.1.64a2,2,0,0,1-.39.52Z"/><path class="cls-65" d="M155.75,142.27a.82.82,0,0,0-.79-.4,1.58,1.58,0,0,0-.9.49,2.45,2.45,0,0,1,.75.07.89.89,0,0,1,.28.52,2.05,2.05,0,0,0,.43-.32,3.91,3.91,0,0,0,.23-.36Z"/><path class="cls-65" d="M155.09,144.15a1.36,1.36,0,0,0-.71.35,1.34,1.34,0,0,0-.22.84,1,1,0,0,1,.57-.32,3.85,3.85,0,0,1,.7.1,2.17,2.17,0,0,1-.13-.48,1.55,1.55,0,0,0-.21-.49Z"/><path class="cls-65" d="M156.64,150.22a.8.8,0,0,0-.7-.19,1.28,1.28,0,0,0-.73.58,1.66,1.66,0,0,1,.6-.05.77.77,0,0,1,.37.27,2.17,2.17,0,0,0,.27-.27,2.8,2.8,0,0,0,.19-.34Z"/><path class="cls-65" d="M156.13,152a1,1,0,0,0-.7.2,1.13,1.13,0,0,0-.34.75s.31-.26.55-.22a2.29,2.29,0,0,1,.52.16s.05-.3.07-.38a.89.89,0,0,0-.1-.51Z"/><path class="cls-65" d="M157,153.65a1.36,1.36,0,0,0,.19.77,1.13,1.13,0,0,0,.68.35,3.25,3.25,0,0,1-.17-.48.61.61,0,0,1,.21-.45.76.76,0,0,0-.44-.23,3.5,3.5,0,0,0-.47,0Z"/><path class="cls-65" d="M161.4,157.87a1,1,0,0,0-.73-.37,1.78,1.78,0,0,0-.87.41s.53,0,.67.14a4.43,4.43,0,0,1,.27.4,3.24,3.24,0,0,0,.34-.21,3.3,3.3,0,0,0,.32-.37Z"/><path class="cls-65" d="M160.1,159.56a1.07,1.07,0,0,0-.84.21,1.29,1.29,0,0,0-.25.81s.34-.36.64-.33a2.34,2.34,0,0,1,.65.19s-.05-.32-.09-.47-.11-.41-.11-.41Z"/><path class="cls-65" d="M161.3,161.34a.68.68,0,0,0-.07.69,1.39,1.39,0,0,0,.63.45.63.63,0,0,1-.08-.48c.05-.2.4-.48.4-.48l-.88-.18Z"/><path class="cls-65" d="M168.74,162.07a1.26,1.26,0,0,0-.76,0c-.27.16-.49.84-.49.84a1.35,1.35,0,0,1,.77-.33,1.92,1.92,0,0,1,.56.18,1.88,1.88,0,0,0,0-.46,1.28,1.28,0,0,0-.09-.27Z"/><path class="cls-65" d="M169,163.86s-.37.38-.24.71a4.46,4.46,0,0,0,.38.66s0-.48.13-.61a1.26,1.26,0,0,1,.63-.23,3.16,3.16,0,0,0-.42-.32C169.36,164,169,163.86,169,163.86Z"/><path class="cls-65" d="M170.85,164.42a.7.7,0,0,0,.17.77,1.29,1.29,0,0,0,.66.34s-.27-.48-.19-.73a1,1,0,0,1,.33-.44,2.69,2.69,0,0,0-.51-.13,4.68,4.68,0,0,0-.46.19Z"/><path class="cls-4" d="M169.73,139.63h-.18a.76.76,0,0,1-.15.21.38.38,0,0,1-.52,0,.33.33,0,0,1-.08-.25.29.29,0,0,1-.31,0,.34.34,0,0,1-.08-.48s0-.08.06-.1v-.2l-.21,0-.06.12a.32.32,0,0,1-.42.1.38.38,0,0,1-.08-.16.24.24,0,0,1-.1.06c-.32.08-.45-.63-.46-.81l-.1.15a2.87,2.87,0,0,1,.05.78,4.11,4.11,0,0,1-.18.72,5.53,5.53,0,0,1,1.78,1,5.63,5.63,0,0,1,1.41,1.45,5.09,5.09,0,0,1,.71-.31,3.54,3.54,0,0,1,.81-.12l.13-.12c-.19,0-.94.06-.93-.26a.16.16,0,0,1,.05-.11.37.37,0,0,1-.18,0c-.11-.07-.11-.25,0-.41l.11-.08v-.2l-.2,0a.65.65,0,0,0-.09.08.38.38,0,0,1-.52,0,.23.23,0,0,1-.06-.27.35.35,0,0,1-.27,0,.33.33,0,0,1-.07-.48.54.54,0,0,1,.19-.19l-.05-.18Z"/><path class="cls-68" d="M168.38,140a.1.1,0,0,1,.14,0s.06.1,0,.13a.11.11,0,0,1-.14,0s-.06-.09,0-.12Z"/><path class="cls-68" d="M169,140.51l-.2-.15a.06.06,0,0,1,0-.09.07.07,0,0,1,.1,0l.2.15.2.15s.05.08,0,.1a.09.09,0,0,1-.1,0l-.2-.16"/><path class="cls-68" d="M167.9,139.8l-.15-.09a.08.08,0,0,1,0-.1s.06,0,.1,0l.15.09.16.09a.09.09,0,0,1,0,.1s-.06,0-.1,0l-.16-.09"/><path class="cls-68" d="M167.28,139.37a.12.12,0,0,1,.14,0c.05,0,.06.1,0,.14a.09.09,0,0,1-.13,0,.1.1,0,0,1,0-.13Z"/><path class="cls-68" d="M169.58,141s0-.08,0-.12a.11.11,0,0,0-.15,0,.09.09,0,0,0,0,.12.1.1,0,0,0,.14,0Z"/><path class="cls-68" d="M169.92,141.35l.13.12s.08.05.11,0a.06.06,0,0,0,0-.09l-.12-.13-.13-.13s-.09,0-.11,0,0,.06,0,.09l.13.13"/><path class="cls-68" d="M170.49,141.83a.08.08,0,0,0,0-.12.11.11,0,0,0-.14,0,.09.09,0,0,0,0,.13C170.4,141.86,170.46,141.87,170.49,141.83Z"/><path class="cls-4" d="M168.84,138.22h-.35l-.07.52,0,.09h.09l.45-.3-.16-.3"/><path class="cls-4" d="M168.84,138.22h-.35l-.07.52,0,.09h.09l.45-.3-.16-.3"/><path class="cls-4" d="M167.88,138.5v.33l.55.07.09,0v-.09l-.32-.43-.3.16"/><path class="cls-4" d="M169,139.15l-.29.16-.33-.42v-.09l.08,0,.56.07,0,.32"/><path class="cls-4" d="M168.31,138.75a.16.16,0,0,1,.23-.05.15.15,0,0,1,.06.22.17.17,0,0,1-.23.05A.15.15,0,0,1,168.31,138.75Z"/><path class="cls-4" d="M167,138.21s-.08-.28-.16-.43a1,1,0,0,0-.23-.25.48.48,0,0,1,.52.05c.23.19,0,.52,0,.52s0,.09-.11.11Z"/><path class="cls-4" d="M167.63,138.4l-.25.22-.41-.36,0,0,0-.09.55,0,0,.32"/><path class="cls-4" d="M166.94,138.17a.16.16,0,0,1,.17-.12c.07,0,.09.11.06.2s-.11.14-.17.12S166.91,138.26,166.94,138.17Z"/><path class="cls-4" d="M170.2,139.06l-.35,0-.15.51,0,.08h.09l.5-.25-.12-.32"/><path class="cls-4" d="M169.21,139.22l-.06.32.54.14.09,0v-.09l-.26-.47-.31.12"/><path class="cls-4" d="M170.24,140l-.32.12-.25-.47v-.09l.09,0,.54.14-.06.32"/><path class="cls-4" d="M169.59,139.52a.18.18,0,0,1,.24,0,.15.15,0,0,1,0,.23.18.18,0,0,1-.25,0,.16.16,0,0,1,0-.23Z"/><path class="cls-4" d="M171.38,140.17l.07.33-.52.18-.1,0v-.08l.21-.49.34.09"/><path class="cls-4" d="M171.29,141.12l-.33.08-.19-.5,0-.09h.09l.51.21-.11.31"/><path class="cls-4" d="M170.38,140.2l-.11.31.51.2h.1l0-.08-.18-.5-.34.08"/><path class="cls-4" d="M171,140.78a.17.17,0,0,0,0-.24.21.21,0,0,0-.25,0,.17.17,0,0,0,0,.24.18.18,0,0,0,.24,0Z"/><path class="cls-4" d="M171.77,141.86s.3,0,.48,0a1.34,1.34,0,0,1,.31.16s.07-.25-.17-.47-.53.13-.53.13a.44.44,0,0,0-.09.13Z"/><path class="cls-4" d="M171.45,141.32l-.17.28.45.31.06,0,.07,0-.07-.52h-.34"/><path class="cls-4" d="M171.82,141.92c.09,0,.13-.13.09-.19s-.13-.06-.21,0-.12.13-.09.19S171.74,142,171.82,141.92Z"/></g><g id="inescutcheon"><ellipse class="cls-69" cx="150.26" cy="168.61" rx="9.76" ry="10.98"/><ellipse class="cls-70" cx="150.26" cy="168.58" rx="6.86" ry="8.05"/><g id="fdl"><path class="cls-71" d="M147,163a3.19,3.19,0,0,0-.81,1.72,3.83,3.83,0,0,0,.34,1.52.9.9,0,0,0-.85-.56.88.88,0,0,0-.9.85,1.25,1.25,0,0,0,.15.46l.29.6a.62.62,0,0,1,.59-.34.63.63,0,0,1,.65.6.37.37,0,0,1,0,.15h-.73v.62h.66l-.49,1,.64-.25.49.55.5-.55.64.25-.48-1h.65v-.62h-.73a.71.71,0,0,1,0-.15.62.62,0,0,1,.63-.6.6.6,0,0,1,.59.34l.3-.6a1.23,1.23,0,0,0,.14-.46.87.87,0,0,0-.89-.85.88.88,0,0,0-.85.56,3.83,3.83,0,0,0,.34-1.52A3.16,3.16,0,0,0,147,163Z"/><path class="cls-72" d="M145.72,168.67h2.62v-.62h-2.62Z"/></g><g id="fdl-2" data-name="fdl"><path class="cls-71" d="M153.4,163a3.19,3.19,0,0,0-.81,1.72,3.83,3.83,0,0,0,.34,1.52.9.9,0,0,0-.85-.56.87.87,0,0,0-.9.85,1.25,1.25,0,0,0,.15.46l.29.6a.61.61,0,0,1,.59-.34.63.63,0,0,1,.65.6.37.37,0,0,1,0,.15h-.73v.62h.65l-.48,1,.64-.25.49.55.5-.55.64.25-.48-1h.65v-.62H154a.71.71,0,0,1,0-.15.65.65,0,0,1,1.22-.26l.29-.6a1.25,1.25,0,0,0,.15-.46.91.91,0,0,0-1.74-.29,3.83,3.83,0,0,0,.34-1.52,3.16,3.16,0,0,0-.83-1.72Z"/><path class="cls-72" d="M152.1,168.67h2.62v-.62H152.1Z"/></g><g id="fdl-3" data-name="fdl"><path class="cls-71" d="M150.2,168.53a3.18,3.18,0,0,0-.81,1.71,3.76,3.76,0,0,0,.35,1.53.91.91,0,0,0-.85-.57.88.88,0,0,0-.9.86,1.29,1.29,0,0,0,.14.46l.3.59a.6.6,0,0,1,.59-.34.63.63,0,0,1,.64.61.39.39,0,0,1,0,.15h-.73v.62h.65l-.48,1,.64-.26.48.55.51-.55.64.26-.48-1h.65v-.62h-.73a.39.39,0,0,1,0-.15.66.66,0,0,1,1.23-.27l.29-.59a1.31,1.31,0,0,0,.15-.46.9.9,0,0,0-1.74-.29,3.85,3.85,0,0,0,.34-1.53,3.15,3.15,0,0,0-.84-1.71Z"/><path class="cls-72" d="M148.91,174.15h2.61v-.62h-2.61Z"/></g></g></g></g></svg>